<?xml version="1.0" encoding="utf-8"?>
<svg viewBox="0.94 95.203 631.281 665.781" xmlns="http://www.w3.org/2000/svg">
  <g id="g8" transform="matrix(1.333333, 0, 0, -1.333333, 0, 926.666687)">
    <path d="M 230.738 127.915 C 140.634 180.77 77.841 248.334 44.031 328.781 L 0.705 348.76 L 0.705 460.138 C 0.705 460.138 12.163 463.248 13.353 463.566 C 12.366 477.321 11.836 491.787 11.741 507.478 L 11.667 520.008 L 24.19 519.858 L 24.841 519.838 C 56.712 519.838 82.656 545.788 82.656 577.678 C 82.656 580.118 82.49 582.588 82.148 585.218 L 80.625 596.948 L 236.964 623.598 L 393.303 596.948 L 391.78 585.218 C 391.437 582.588 391.27 580.118 391.27 577.678 C 391.27 545.788 417.214 519.838 449.105 519.838 L 449.736 519.858 L 462.261 520.008 L 462.185 507.478 C 462.089 491.875 461.567 477.489 460.591 463.812 C 462.091 463.415 463.59 463.012 465.088 462.605 L 474.166 460.138 L 474.166 349.966 L 429.663 328.214 C 395.804 248.026 333.09 180.652 243.191 127.915 L 236.964 124.262 L 230.738 127.915" style="fill:#ffffff;fill-opacity:1;fill-rule:nonzero;stroke:none" id="path14"/>
    <path d="M 12.515 390.626 L 64.173 415.301 L 58.484 365.092 Z" style="fill:#2e2d2e;fill-opacity:1;fill-rule:nonzero;stroke:none" id="path16"/>
    <path d="M 462.357 390.626 L 410.7 415.301 L 416.388 365.092 Z" style="fill:#2e2d2e;fill-opacity:1;fill-rule:nonzero;stroke:none" id="path18"/>
    <path d="M 449.577 507.538 C 410.839 507.538 379.438 538.938 379.438 577.678 C 379.438 580.768 379.659 583.808 380.048 586.798 L 237.436 611.118 L 94.823 586.798 C 95.213 583.808 95.435 580.768 95.435 577.678 C 95.435 538.938 64.032 507.538 25.296 507.538 C 25.036 507.538 24.779 507.548 24.52 507.558 C 25.166 401.008 46.149 250.743 237.436 138.528 C 428.723 250.743 449.705 401.008 450.353 507.558 C 450.093 507.548 449.837 507.538 449.577 507.538" style="fill:#1c1827;fill-opacity:1;fill-rule:nonzero;stroke:none" id="path20"/>
    <path d="M 237.436 157.643 C 72.67 257.934 44.025 387.128 41.173 492.587 C 79.863 499.788 109.587 532.818 111.72 573.038 L 237.436 594.478 L 363.152 573.038 C 365.288 532.818 395.011 499.788 433.701 492.586 C 430.847 387.127 402.199 257.934 237.436 157.643" style="fill:#ffffff;fill-opacity:1;fill-rule:nonzero;stroke:none" id="path22"/>
    <path d="M 425.285 486.069 C 424.814 473.907 424.013 462.196 422.823 450.874 C 417.963 404.133 406.929 363.954 388.901 326.749 C 358.382 263.763 308.809 211.545 237.436 167.265 C 166.062 211.545 116.489 263.763 85.971 326.749 C 67.944 363.954 56.909 404.133 52.048 450.874 C 50.859 462.196 50.059 473.907 49.587 486.069 C 87.059 495.955 114.623 527.518 119.341 566.018 L 237.436 586.158 L 355.532 566.018 C 360.249 527.518 387.814 495.955 425.285 486.069" style="fill:#51ade5;fill-opacity:1;fill-rule:nonzero;stroke:none" id="path24"/>
    <path d="M 344.837 555.358 L 237.436 573.668 L 130.036 555.358 C 122.441 519.208 96.98 489.837 62.318 477.178 C 62.579 472.383 62.891 467.731 63.261 463.18 L 411.611 463.18 C 411.98 467.731 412.294 472.383 412.554 477.178 C 377.891 489.837 352.43 519.208 344.837 555.358" style="fill:#ffffff;fill-opacity:1;fill-rule:nonzero;stroke:none" id="path26"/>
    <path d="M 411.611 463.18 L 63.261 463.18 C 62.891 467.731 62.579 472.383 62.318 477.178 C 96.98 489.837 122.441 519.208 130.036 555.358 L 237.436 573.668 L 344.837 555.358 C 352.43 519.208 377.891 489.837 412.554 477.178 C 412.294 472.383 411.98 467.731 411.611 463.18 Z M 355.532 566.018 L 237.436 586.158 L 119.341 566.018 C 114.623 527.518 87.059 495.955 49.587 486.069 C 50.059 473.907 50.859 462.196 52.048 450.874 L 422.823 450.874 C 424.013 462.196 424.814 473.907 425.285 486.069 C 387.814 495.955 360.249 527.518 355.532 566.018" style="fill:#51ade5;fill-opacity:1;fill-rule:nonzero;stroke:none" id="path28"/>
    <path d="M 237.436 167.265 L 237.436 212.31 C 237.461 212.31 237.489 212.31 237.514 212.31 C 248.7 212.31 259.882 214.059 270.548 217.565 C 293.118 224.982 312.848 240.184 325.879 260.04 C 329.075 264.91 331.863 270.046 334.208 275.377 C 333.445 273.641 332.632 271.792 332.632 271.792 C 332.632 271.792 333.054 272.751 334.219 275.4 C 335.089 277.379 335.457 278.216 335.511 278.341 L 335.512 278.341 C 335.514 278.346 335.515 278.349 335.516 278.352 C 335.517 278.353 335.517 278.354 335.518 278.355 L 335.518 278.355 C 335.518 278.356 335.518 278.356 335.518 278.357 L 335.518 278.357 C 335.519 278.357 335.519 278.357 335.519 278.357 C 335.519 278.357 335.519 278.357 335.518 278.357 L 335.518 278.357 C 335.518 278.356 335.518 278.356 335.518 278.355 L 335.518 278.355 C 335.517 278.354 335.517 278.353 335.516 278.352 C 335.515 278.349 335.514 278.346 335.512 278.341 L 335.511 278.341 C 335.439 278.178 334.854 276.846 334.23 275.426 C 342.84 295.028 345.28 317.139 341.214 338.154 C 337.195 358.939 326.846 378.183 311.816 393.079 C 295.655 409.097 274.477 419.583 251.932 422.697 C 247.157 423.357 242.341 423.684 237.53 423.684 C 237.498 423.684 237.468 423.684 237.436 423.684 L 237.436 450.874 L 422.823 450.874 C 417.963 404.133 406.929 363.954 388.901 326.749 C 358.382 263.763 308.809 211.545 237.436 167.265" style="fill:#3f84af;fill-opacity:1;fill-rule:nonzero;stroke:none" id="path30"/>
    <path d="M 411.611 463.18 L 237.436 463.18 L 237.436 573.668 L 344.837 555.358 C 352.43 519.208 377.891 489.837 412.554 477.178 C 412.294 472.383 411.98 467.731 411.611 463.18" style="fill:#c1c0bd;fill-opacity:1;fill-rule:nonzero;stroke:none" id="path32"/>
    <path d="M 422.823 450.874 L 237.436 450.874 L 237.436 463.18 L 411.611 463.18 C 411.98 467.731 412.294 472.383 412.554 477.178 L 412.554 477.178 C 377.891 489.837 352.43 519.208 344.837 555.358 L 237.436 573.668 L 237.436 586.158 L 355.532 566.018 C 360.249 527.518 387.814 495.955 425.285 486.069 C 424.814 473.907 424.013 462.196 422.823 450.874" style="fill:#3f84af;fill-opacity:1;fill-rule:nonzero;stroke:none" id="path34"/>
    <path d="M 325.879 260.04 C 329.075 264.91 331.863 270.046 334.208 275.377 C 332.896 272.392 331.436 269.071 334.219 275.4 C 336.429 280.427 335.398 278.082 334.23 275.426 C 342.84 295.028 345.28 317.139 341.214 338.154 C 337.195 358.939 326.846 378.183 311.816 393.079 C 295.655 409.097 274.477 419.583 251.932 422.697 C 232.166 425.427 211.742 422.46 193.58 414.193 C 172.748 404.709 155.23 388.315 144.379 368.159 C 134.275 349.392 130.055 327.682 132.35 306.496 C 134.538 286.32 142.629 266.955 155.462 251.23 C 169.15 234.46 187.873 222.106 208.718 216.258 C 228.9 210.596 250.626 211.017 270.548 217.565 C 293.118 224.982 312.848 240.184 325.879 260.04" style="fill:#f4f4f4;fill-opacity:1;fill-rule:nonzero;stroke:none" id="path36"/>
    <path d="M 319.637 295.194 C 318.652 295.687 317.675 296.198 316.682 296.672 C 307.693 300.946 298.411 304.447 288.954 307.142 C 286.652 302.462 284.13 297.752 281.434 293.102 C 277.98 287.141 274.582 281.784 271.049 276.729 C 261.884 263.492 251.448 251.277 240.041 240.439 C 238.278 238.712 236.446 237.004 234.573 235.302 C 234.018 234.796 233.442 234.29 232.875 233.786 C 231.463 232.529 230.013 231.273 228.53 230.021 C 228.155 229.704 227.811 229.386 227.432 229.07 C 237.004 228.031 246.51 228.487 255.921 230.392 C 272.684 233.92 288.082 242.181 300.421 254.274 C 311.446 265.066 319.477 278.419 323.784 293.048 C 322.409 293.781 321.028 294.5 319.637 295.194" style="fill:#ffffff;fill-opacity:1;fill-rule:nonzero;stroke:none" id="path38"/>
    <path d="M 176.632 259.328 C 177.544 259.935 178.47 260.515 179.371 261.138 C 182.172 263.077 184.932 265.081 187.631 267.181 C 187.743 267.269 187.849 267.365 187.961 267.452 C 190.545 269.473 193.075 271.574 195.559 273.737 C 196.4 274.47 197.211 275.241 198.039 275.989 C 199.318 277.145 200.578 278.326 201.827 279.519 C 201.758 279.62 201.69 279.734 201.621 279.835 C 200.388 281.649 199.157 283.535 197.927 285.488 C 197.675 285.888 197.42 286.303 197.167 286.709 C 195.893 288.761 194.615 290.867 193.32 293.102 C 190.039 298.76 187.017 304.503 184.337 310.173 C 177.379 324.796 171.957 339.966 168.23 355.253 C 167.271 359.07 166.455 362.857 165.709 366.621 C 165.534 367.508 165.361 368.388 165.198 369.269 C 165.048 370.079 164.866 370.9 164.727 371.706 C 159.12 364.081 154.818 355.685 151.898 346.649 C 148.904 337.666 147.391 328.221 147.391 318.547 C 147.391 310.851 148.339 303.28 150.209 296.042 C 154.007 281.232 161.593 267.621 172.214 256.486 C 173.699 257.413 175.173 258.356 176.632 259.328" style="fill:#51ade5;fill-opacity:1;fill-rule:nonzero;stroke:none" id="path40"/>
    <path d="M 216.543 400.653 C 216.609 399.596 216.646 398.536 216.73 397.481 C 217.005 394.069 217.357 390.664 217.821 387.274 C 217.843 387.11 217.879 386.947 217.902 386.782 C 218.351 383.565 218.894 380.363 219.514 377.176 C 219.728 376.072 219.991 374.978 220.226 373.878 C 220.58 372.213 220.968 370.557 221.37 368.903 C 222.829 368.999 224.283 369.049 225.738 369.118 C 226.618 369.159 227.495 369.215 228.376 369.247 C 231.248 369.352 234.134 369.414 237.061 369.418 C 243.671 369.428 250.263 369.18 256.755 368.659 C 272.716 367.341 288.545 364.427 303.809 360.001 C 306.384 359.248 308.866 358.471 311.304 357.679 C 312.038 357.44 312.755 357.193 313.48 356.95 C 315.184 356.379 316.865 355.795 318.512 355.198 C 318.941 355.044 319.395 354.9 319.819 354.743 C 316.017 363.394 310.848 371.494 304.616 378.506 C 292.966 391.445 278.038 400.725 261.473 405.326 C 246.666 409.37 230.907 409.603 216.291 406.049 C 216.35 404.248 216.43 402.449 216.543 400.653" style="fill:#f9cb17;fill-opacity:1;fill-rule:nonzero;stroke:none" id="path42"/>
    <path d="M 220.937 288.482 C 220.039 287.419 219.191 286.314 218.271 285.271 C 215.52 282.155 212.679 279.124 209.734 276.196 L 209.732 276.193 L 209.727 276.187 C 209.608 276.069 209.481 275.963 209.362 275.846 C 206.885 273.411 204.346 271.05 201.755 268.759 C 200.853 267.961 199.917 267.213 199.001 266.433 C 197.148 264.854 195.286 263.287 193.38 261.785 C 192.287 260.922 191.167 260.101 190.056 259.264 C 188.27 257.919 186.478 256.589 184.652 255.311 C 183.459 254.476 182.254 253.672 181.045 252.866 C 180.052 252.204 179.082 251.499 178.079 250.856 C 189.284 241.015 202.646 234.128 217.082 230.779 C 217.8 231.344 218.507 231.908 219.207 232.472 C 219.895 233.025 220.594 233.58 221.266 234.132 C 222.257 234.948 223.214 235.765 224.173 236.581 C 224.757 237.079 225.357 237.577 225.931 238.075 C 226.988 238.995 228.01 239.918 229.03 240.843 C 229.473 241.245 229.934 241.645 230.371 242.049 C 231.816 243.38 233.228 244.719 234.607 246.07 C 245.671 256.582 255.757 268.386 264.625 281.198 C 268.04 286.085 271.32 291.256 274.664 297.026 C 276.085 299.477 277.436 301.946 278.748 304.415 C 279.136 305.144 279.509 305.872 279.886 306.602 C 280.335 307.468 280.748 308.33 281.182 309.195 C 279.71 309.562 278.239 309.934 276.757 310.263 C 275.403 310.564 274.052 310.883 272.689 311.153 C 269.989 311.687 267.271 312.129 264.546 312.539 C 263.484 312.699 262.43 312.901 261.363 313.042 C 257.573 313.544 253.766 313.937 249.941 314.199 C 249.273 314.244 248.6 314.243 247.932 314.281 C 245.164 314.44 242.387 314.527 239.605 314.56 C 238.58 312.836 237.455 311.184 236.379 309.495 C 235.432 308.008 234.524 306.494 233.538 305.035 C 232.13 302.949 230.628 300.937 229.143 298.911 C 228.162 297.574 227.227 296.204 226.214 294.894 C 224.518 292.702 222.723 290.596 220.937 288.482" style="fill:#f9cb17;fill-opacity:1;fill-rule:nonzero;stroke:none" id="path44"/>
    <path d="M 321.161 345.836 C 320.441 346.12 319.728 346.407 318.998 346.684 C 317.879 347.11 316.734 347.523 315.589 347.936 C 314.871 348.194 314.163 348.459 313.434 348.713 C 312.146 349.161 310.825 349.596 309.501 350.031 C 308.886 350.233 308.288 350.441 307.663 350.64 C 305.695 351.268 303.686 351.884 301.624 352.487 C 286.864 356.768 271.554 359.584 256.122 360.861 C 253.243 361.091 250.339 361.257 247.423 361.38 C 246.33 361.426 245.229 361.438 244.13 361.469 C 242.293 361.521 240.454 361.569 238.609 361.579 C 237.376 361.585 236.145 361.565 234.913 361.552 C 233.153 361.534 231.393 361.506 229.632 361.449 C 228.419 361.409 227.212 361.355 226.005 361.297 C 225.163 361.257 224.321 361.197 223.48 361.148 C 223.905 359.696 224.325 358.244 224.787 356.804 C 225.219 355.456 225.632 354.104 226.095 352.767 C 226.992 350.172 227.975 347.607 228.988 345.052 C 229.386 344.048 229.745 343.028 230.161 342.03 C 231.636 338.494 233.211 334.996 234.904 331.552 C 235.191 330.968 235.519 330.404 235.812 329.823 C 237.069 327.334 238.391 324.877 239.759 322.443 C 241.754 322.418 243.736 322.267 245.725 322.18 C 247.509 322.103 249.298 322.072 251.076 321.945 C 253.57 321.766 256.044 321.468 258.521 321.192 C 260.191 321.005 261.868 320.877 263.529 320.647 C 266.232 320.272 268.908 319.766 271.588 319.275 C 273 319.016 274.427 318.824 275.831 318.533 C 279.876 317.696 283.891 316.731 287.866 315.628 L 287.88 315.627 L 287.921 315.616 L 287.925 315.614 C 291.386 314.698 294.821 313.658 298.237 312.531 C 299.339 312.168 300.423 311.744 301.521 311.36 C 303.83 310.548 306.134 309.724 308.419 308.817 C 309.727 308.298 311.016 307.73 312.314 307.181 C 314.359 306.314 316.4 305.433 318.419 304.491 C 319.779 303.857 321.123 303.19 322.468 302.523 C 323.55 301.987 324.65 301.5 325.721 300.942 C 326.853 306.669 327.427 312.571 327.427 318.547 C 327.427 327.609 326.098 336.465 323.482 344.905 C 322.713 345.219 321.941 345.53 321.161 345.836" style="fill:#51ade5;fill-opacity:1;fill-rule:nonzero;stroke:none" id="path46"/>
    <path d="M 173.184 369.043 C 173.945 365.114 174.818 361.14 175.825 357.135 C 179.432 342.339 184.672 327.677 191.407 313.526 C 194 308.045 196.919 302.497 200.091 297.026 C 201.205 295.101 202.305 293.28 203.402 291.501 C 203.688 291.035 203.975 290.575 204.261 290.119 C 205.263 288.519 206.263 286.963 207.263 285.465 C 207.325 285.372 207.386 285.274 207.448 285.181 C 208.518 286.301 209.589 287.418 210.632 288.565 C 211.566 289.594 212.513 290.61 213.424 291.66 C 215.23 293.743 216.968 295.886 218.682 298.051 C 219.344 298.887 220.039 299.696 220.687 300.544 C 223.01 303.585 225.251 306.694 227.389 309.88 C 227.764 310.44 228.102 311.028 228.472 311.592 C 229.986 313.903 231.443 316.254 232.857 318.634 C 231.879 320.375 231.013 322.171 230.09 323.94 C 229.268 325.513 228.405 327.065 227.628 328.658 C 226.53 330.908 225.543 333.203 224.536 335.491 C 223.861 337.024 223.133 338.534 222.498 340.082 C 221.452 342.634 220.531 345.231 219.596 347.824 C 219.116 349.152 218.576 350.458 218.127 351.796 C 216.8 355.744 215.594 359.732 214.527 363.759 C 213.614 367.25 212.816 370.77 212.1 374.307 C 211.864 375.48 211.687 376.662 211.471 377.838 C 211.038 380.216 210.616 382.594 210.271 384.987 C 210.071 386.387 209.92 387.792 209.75 389.196 C 209.485 391.386 209.236 393.576 209.047 395.775 C 208.918 397.263 208.825 398.753 208.731 400.245 C 208.657 401.427 208.532 402.605 208.48 403.788 C 194.404 399.026 181.706 390.808 171.433 379.791 C 171.739 377.563 172.123 375.296 172.518 373.023 C 172.748 371.692 172.924 370.388 173.184 369.043" style="fill:#ffffff;fill-opacity:1;fill-rule:nonzero;stroke:none" id="path48"/>
    <path d="M 325.721 300.942 C 324.65 301.5 323.55 301.987 322.468 302.523 C 321.123 303.19 319.779 303.857 318.419 304.491 C 316.4 305.433 314.359 306.314 312.314 307.181 C 311.016 307.73 309.727 308.298 308.419 308.817 C 306.134 309.724 303.83 310.548 301.521 311.36 C 300.423 311.744 299.339 312.168 298.237 312.531 C 294.821 313.658 291.386 314.698 287.925 315.614 L 287.921 315.616 L 287.88 315.627 L 287.866 315.628 C 283.891 316.731 279.876 317.696 275.831 318.533 C 274.427 318.824 273 319.016 271.588 319.275 C 268.908 319.766 266.232 320.272 263.529 320.647 C 261.868 320.877 260.191 321.005 258.521 321.192 C 256.044 321.468 253.57 321.766 251.076 321.945 C 249.298 322.072 247.509 322.103 245.725 322.18 C 243.736 322.267 241.754 322.418 239.759 322.443 C 238.391 324.877 237.069 327.334 235.812 329.823 C 235.519 330.404 235.191 330.968 234.904 331.552 C 233.211 334.996 231.636 338.494 230.161 342.03 C 229.745 343.028 229.386 344.048 228.988 345.052 C 227.975 347.607 226.992 350.172 226.095 352.767 C 225.632 354.104 225.219 355.456 224.787 356.804 C 224.325 358.244 223.905 359.696 223.48 361.148 C 224.321 361.197 225.163 361.257 226.005 361.297 C 227.212 361.355 228.419 361.409 229.632 361.449 C 231.393 361.506 233.153 361.534 234.913 361.552 C 236.145 361.565 237.376 361.585 238.609 361.579 C 240.454 361.569 242.293 361.521 244.13 361.469 C 245.229 361.438 246.33 361.426 247.423 361.38 C 250.339 361.257 253.243 361.091 256.122 360.861 C 271.554 359.584 286.864 356.768 301.624 352.487 C 303.686 351.884 305.695 351.268 307.663 350.64 C 308.288 350.441 308.886 350.233 309.501 350.031 C 310.825 349.596 312.146 349.161 313.434 348.713 C 314.163 348.459 314.871 348.194 315.589 347.936 C 316.734 347.523 317.879 347.11 318.998 346.684 C 319.728 346.407 320.441 346.12 321.161 345.836 C 321.941 345.53 322.713 345.219 323.482 344.905 C 326.098 336.465 327.427 327.609 327.427 318.547 C 327.427 312.571 326.853 306.669 325.721 300.942 Z M 233.538 305.035 C 234.524 306.494 235.432 308.008 236.379 309.495 C 237.455 311.184 238.58 312.836 239.605 314.56 C 242.387 314.527 245.164 314.44 247.932 314.281 C 248.6 314.243 249.273 314.244 249.941 314.199 C 253.766 313.937 257.573 313.544 261.363 313.042 C 262.43 312.901 263.484 312.699 264.546 312.539 C 267.271 312.129 269.989 311.687 272.689 311.153 C 274.052 310.883 275.403 310.564 276.757 310.263 C 278.239 309.934 279.71 309.562 281.182 309.195 C 280.748 308.33 280.335 307.468 279.886 306.602 C 279.509 305.872 279.136 305.144 278.748 304.415 C 277.436 301.946 276.085 299.477 274.664 297.026 C 271.32 291.256 268.04 286.085 264.625 281.198 C 255.757 268.386 245.671 256.582 234.607 246.07 C 233.228 244.719 231.816 243.38 230.371 242.049 C 229.934 241.645 229.473 241.245 229.03 240.843 C 228.01 239.918 226.988 238.995 225.931 238.075 C 225.357 237.577 224.757 237.079 224.173 236.581 C 223.214 235.765 222.257 234.948 221.266 234.132 C 220.594 233.58 219.895 233.025 219.207 232.472 C 218.507 231.908 217.8 231.344 217.082 230.779 C 202.646 234.128 189.284 241.015 178.079 250.856 C 179.082 251.499 180.052 252.204 181.045 252.866 C 182.254 253.672 183.459 254.476 184.652 255.311 C 186.478 256.589 188.27 257.919 190.056 259.264 C 191.167 260.101 192.287 260.922 193.38 261.785 C 195.286 263.287 197.148 264.854 199.001 266.433 C 199.917 267.213 200.853 267.961 201.755 268.759 C 204.346 271.05 206.885 273.411 209.362 275.846 C 209.481 275.963 209.608 276.069 209.727 276.187 L 209.73 276.191 L 209.734 276.195 C 212.679 279.124 215.52 282.155 218.271 285.271 C 219.191 286.314 220.039 287.419 220.937 288.482 C 222.723 290.596 224.518 292.702 226.214 294.894 C 227.227 296.204 228.162 297.574 229.143 298.911 C 230.628 300.937 232.13 302.949 233.538 305.035 Z M 208.48 403.788 C 208.532 402.605 208.657 401.427 208.731 400.245 C 208.825 398.753 208.918 397.263 209.047 395.775 C 209.236 393.576 209.485 391.386 209.75 389.196 C 209.92 387.792 210.071 386.387 210.271 384.987 C 210.616 382.594 211.038 380.216 211.471 377.838 C 211.687 376.662 211.864 375.48 212.1 374.307 C 212.816 370.77 213.614 367.25 214.527 363.759 C 215.594 359.732 216.8 355.744 218.127 351.796 C 218.576 350.458 219.116 349.152 219.596 347.824 C 220.531 345.231 221.452 342.634 222.498 340.082 C 223.133 338.534 223.861 337.024 224.536 335.491 C 225.543 333.203 226.53 330.908 227.628 328.658 C 228.405 327.065 229.268 325.513 230.09 323.94 C 231.013 322.171 231.879 320.375 232.857 318.634 C 231.443 316.254 229.986 313.903 228.472 311.592 C 228.102 311.028 227.764 310.44 227.389 309.88 C 225.251 306.694 223.01 303.585 220.687 300.544 C 220.039 299.696 219.344 298.887 218.682 298.051 C 216.968 295.886 215.23 293.743 213.424 291.66 C 212.513 290.61 211.566 289.594 210.632 288.565 C 209.589 287.418 208.518 286.301 207.448 285.181 C 207.386 285.274 207.325 285.372 207.263 285.465 C 206.263 286.963 205.263 288.519 204.261 290.119 C 203.975 290.575 203.688 291.035 203.402 291.501 C 202.305 293.28 201.205 295.101 200.091 297.026 C 196.919 302.497 194 308.045 191.407 313.526 C 184.672 327.677 179.432 342.339 175.825 357.135 C 174.818 361.14 173.945 365.114 173.184 369.043 C 172.924 370.388 172.748 371.692 172.518 373.023 C 172.123 375.296 171.739 377.563 171.433 379.791 C 181.706 390.808 194.404 399.026 208.48 403.788 Z M 261.473 405.326 C 278.038 400.725 292.966 391.445 304.616 378.506 C 310.848 371.494 316.017 363.394 319.819 354.743 C 319.395 354.9 318.941 355.044 318.512 355.198 C 316.865 355.795 315.184 356.379 313.48 356.95 C 312.755 357.193 312.038 357.44 311.304 357.679 C 308.866 358.471 306.384 359.248 303.809 360.001 C 288.545 364.427 272.716 367.341 256.755 368.659 C 250.263 369.18 243.671 369.428 237.061 369.418 C 234.134 369.414 231.248 369.352 228.376 369.247 C 227.495 369.215 226.618 369.159 225.738 369.118 C 224.283 369.049 222.829 368.999 221.37 368.903 C 220.968 370.557 220.58 372.213 220.226 373.878 C 219.991 374.978 219.728 376.072 219.514 377.176 C 218.894 380.363 218.351 383.565 217.902 386.782 C 217.879 386.947 217.843 387.11 217.821 387.274 C 217.357 390.664 217.005 394.069 216.73 397.481 C 216.646 398.536 216.609 399.596 216.543 400.653 C 216.43 402.449 216.35 404.248 216.291 406.049 C 230.907 409.603 246.666 409.37 261.473 405.326 Z M 147.391 318.547 C 147.391 328.221 148.904 337.666 151.898 346.649 C 154.818 355.685 159.12 364.081 164.727 371.706 C 164.866 370.9 165.048 370.079 165.198 369.269 C 165.361 368.388 165.534 367.508 165.709 366.621 C 166.455 362.857 167.271 359.07 168.23 355.253 C 171.957 339.966 177.379 324.796 184.337 310.173 C 187.017 304.503 190.039 298.76 193.32 293.102 C 194.615 290.867 195.893 288.761 197.167 286.709 C 197.42 286.303 197.675 285.888 197.927 285.488 C 199.157 283.535 200.388 281.649 201.621 279.835 C 201.69 279.734 201.758 279.62 201.827 279.519 C 200.578 278.326 199.318 277.145 198.039 275.989 C 197.211 275.241 196.4 274.47 195.559 273.737 C 193.075 271.574 190.545 269.473 187.961 267.452 C 187.849 267.365 187.743 267.269 187.631 267.181 C 184.932 265.081 182.172 263.077 179.371 261.138 C 178.47 260.515 177.544 259.935 176.632 259.328 C 175.173 258.356 173.699 257.413 172.214 256.486 C 161.593 267.621 154.007 281.232 150.209 296.042 C 148.339 303.28 147.391 310.851 147.391 318.547 Z M 255.921 230.392 C 246.51 228.487 237.004 228.031 227.432 229.07 C 227.811 229.386 228.155 229.704 228.53 230.021 C 230.013 231.273 231.463 232.529 232.875 233.786 C 233.442 234.29 234.018 234.796 234.573 235.302 C 236.446 237.004 238.278 238.712 240.041 240.439 C 251.448 251.277 261.884 263.492 271.049 276.729 C 274.582 281.784 277.98 287.141 281.434 293.102 C 284.13 297.752 286.652 302.462 288.954 307.142 C 298.411 304.447 307.693 300.946 316.682 296.672 C 317.675 296.198 318.652 295.687 319.637 295.194 C 321.028 294.5 322.409 293.781 323.784 293.048 C 319.477 278.419 311.446 265.066 300.421 254.274 C 288.082 242.181 272.684 233.92 255.921 230.392 Z M 330.365 349.05 L 330.361 349.073 C 326.191 361.768 319.315 373.743 310.45 383.721 C 297.78 397.789 281.569 407.867 263.551 412.87 C 246.343 417.572 228.006 417.527 211.193 412.803 L 211.191 412.803 L 211.177 412.8 L 211.17 412.796 C 193.162 407.81 176.977 397.735 164.368 383.658 L 164.358 383.65 C 155.295 373.519 148.596 361.881 144.463 349.09 C 141.213 339.34 139.566 329.064 139.566 318.547 C 139.566 310.192 140.598 301.962 142.631 294.091 C 147.039 276.91 156.127 261.21 168.914 248.69 L 168.916 248.686 C 182.332 235.537 199.046 226.562 217.252 222.727 L 217.278 222.725 L 217.291 222.719 C 223.988 221.38 230.757 220.702 237.409 220.702 C 244.084 220.702 250.834 221.38 257.501 222.727 C 275.759 226.571 292.496 235.548 305.896 248.684 C 318.688 261.205 327.778 276.907 332.187 294.091 L 332.189 294.109 C 334.221 301.979 335.25 310.201 335.25 318.547 C 335.25 329.049 333.607 339.311 330.365 349.05" style="fill:#1c1827;fill-opacity:1;fill-rule:nonzero;stroke:none" id="path50"/>
    <path d="M 240.234 260.487 C 247.082 267.156 264.218 285.303 267.104 302.474 C 267.72 306.148 265.341 308.032 262.305 308.807 C 262.737 308.873 263.216 308.903 263.726 308.903 C 268.1 308.903 274.8 306.734 274.8 306.734 C 274.8 306.734 263.334 278.055 241.671 260.948 C 241.195 260.791 240.714 260.637 240.234 260.487" style="fill:#c2a419;fill-opacity:1;fill-rule:nonzero;stroke:none" id="path52"/>
    <path d="M 221.695 389.672 L 219.848 401.123 C 219.848 401.123 227.37 402.966 238.252 402.966 C 247.157 402.966 258.311 401.732 269.439 397.243 C 269.439 397.243 255.997 400.867 242.298 400.867 C 236.265 400.867 230.184 400.165 225.178 398.141 C 222.387 397.013 223.9 391.447 221.695 389.672" style="fill:#c2a419;fill-opacity:1;fill-rule:nonzero;stroke:none" id="path54"/>
    <path d="M 233.943 344.001 L 230.052 355.945 C 230.052 355.945 238.25 357.194 250.298 357.194 C 263.106 357.194 280.264 355.784 296.552 349.966 C 296.552 349.966 275.693 355.457 256.412 355.457 C 249.125 355.457 242.064 354.672 236.438 352.511 C 232.961 351.175 236.657 346.267 233.943 344.001" style="fill:#3c88bb;fill-opacity:1;fill-rule:nonzero;stroke:none" id="path56"/>
    <path d="M 174.182 265.062 C 172.975 265.062 171.768 265.681 171.024 266.825 C 166.866 273.217 158.136 288.681 156.846 307.482 C 156.846 307.482 161.662 281.793 173.416 270.243 C 174.046 269.623 174.871 269.439 175.779 269.439 C 176.445 269.439 177.157 269.539 177.866 269.638 C 178.576 269.738 179.285 269.838 179.946 269.838 C 180.585 269.838 181.179 269.745 181.689 269.471 L 176.143 265.669 C 175.545 265.259 174.864 265.063 174.182 265.062" style="fill:#3c88bb;fill-opacity:1;fill-rule:nonzero;stroke:none" id="path58"/>
    <path d="M 207.659 292.332 C 207.659 292.332 185.888 325.709 182.54 354.711 C 182.54 354.711 192.182 315.888 208.28 301.107 C 209.004 300.443 209.723 300.217 210.446 300.217 C 211.214 300.217 211.987 300.47 212.78 300.723 C 213.573 300.976 214.386 301.23 215.23 301.23 C 215.768 301.23 216.319 301.127 216.886 300.857 L 207.659 292.332" style="fill:#cbcbcb;fill-opacity:1;fill-rule:nonzero;stroke:none" id="path60"/>
    <path d="M 237.439 228.526 L 237.439 228.526 C 237.444 228.526 237.449 228.526 237.454 228.526 C 237.449 228.526 237.444 228.526 237.439 228.526 Z M 237.43 228.526 C 234.164 228.527 230.891 228.701 227.609 229.051 C 230.89 228.701 234.166 228.527 237.43 228.526 Z M 255.634 230.334 L 255.634 230.334" style="fill:#b8b7b9;fill-opacity:1;fill-rule:nonzero;stroke:none" id="path62"/>
    <path d="M 237.439 228.526 C 237.436 228.526 237.434 228.526 237.43 228.526 C 234.166 228.527 230.89 228.701 227.609 229.051 C 227.55 229.057 227.491 229.064 227.432 229.07 L 227.432 229.07 C 227.811 229.386 228.155 229.704 228.53 230.021 C 230.013 231.273 231.463 232.529 232.875 233.786 C 233.442 234.29 234.018 234.796 234.573 235.302 C 236.446 237.004 238.278 238.712 240.041 240.439 C 251.448 251.277 261.884 263.492 271.049 276.729 C 271.157 276.883 271.264 277.037 271.371 277.192 C 280.909 284.929 288.9 294.498 294.809 305.363 C 302.246 302.963 309.555 300.061 316.682 296.672 C 317.675 296.198 318.652 295.687 319.637 295.194 C 321.028 294.5 322.409 293.781 323.784 293.048 C 319.477 278.419 311.446 265.066 300.421 254.274 C 288.082 242.181 272.684 233.92 255.921 230.392 L 255.921 230.392 C 255.825 230.372 255.73 230.353 255.634 230.334 L 255.634 230.334 C 249.61 229.134 243.546 228.527 237.454 228.526 C 237.449 228.526 237.444 228.526 237.439 228.526 Z M 306.95 296.394 C 309.834 295.378 312.265 293.574 312.191 290.758 C 311.748 274.238 296.95 261.241 296.95 261.241 C 315.462 273.872 318.669 293.092 318.669 293.092 C 318.669 293.092 310.659 296.339 306.95 296.394" style="fill:#c1c2c2;fill-opacity:1;fill-rule:nonzero;stroke:none" id="path64"/>
    <path d="M 172.214 256.486 C 167.729 261.187 163.786 266.329 160.442 271.817 C 166.602 267.735 173.27 264.36 180.332 261.807 C 180.013 261.583 179.692 261.36 179.371 261.138 C 178.47 260.515 177.544 259.935 176.632 259.328 C 175.173 258.356 173.699 257.413 172.214 256.486" style="fill:#3980b2;fill-opacity:1;fill-rule:nonzero;stroke:none" id="path66"/>
    <path d="M 319.819 354.743 C 319.395 354.9 318.941 355.044 318.512 355.198 C 316.865 355.795 315.184 356.379 313.48 356.95 C 312.755 357.193 312.038 357.44 311.304 357.679 C 309.473 358.274 307.616 358.861 305.714 359.435 C 304.905 367.663 303.034 375.577 300.241 383.044 C 301.746 381.586 303.205 380.073 304.616 378.506 C 310.848 371.494 316.017 363.394 319.819 354.743" style="fill:#ba9c1b;fill-opacity:1;fill-rule:nonzero;stroke:none" id="path68"/>
    <path d="M 217.082 230.779 C 202.646 234.128 189.284 241.015 178.079 250.856 C 179.082 251.499 180.052 252.204 181.045 252.866 C 182.254 253.672 183.459 254.476 184.652 255.311 C 186.346 256.498 188.014 257.728 189.671 258.975 C 196.898 257.191 204.456 256.244 212.235 256.244 C 221.987 256.244 231.39 257.729 240.234 260.487 C 238.486 258.786 237.409 257.831 237.409 257.831 C 238.871 258.816 240.292 259.859 241.671 260.948 C 245.424 262.186 249.068 263.652 252.595 265.332 C 246.948 258.524 240.938 252.086 234.607 246.07 C 233.228 244.719 231.816 243.38 230.371 242.049 C 229.934 241.645 229.473 241.245 229.03 240.843 C 228.01 239.918 226.988 238.995 225.931 238.075 C 225.357 237.577 224.757 237.079 224.173 236.581 C 223.214 235.765 222.257 234.948 221.266 234.132 C 220.594 233.58 219.895 233.025 219.207 232.472 C 218.507 231.908 217.8 231.344 217.082 230.779" style="fill:#ba9c1b;fill-opacity:1;fill-rule:nonzero;stroke:none" id="path70"/>
    <path d="M 325.721 300.942 C 324.65 301.5 323.55 301.987 322.468 302.523 C 321.123 303.19 319.779 303.857 318.419 304.491 C 316.4 305.433 314.359 306.314 312.314 307.181 C 311.016 307.73 309.727 308.298 308.419 308.817 C 306.134 309.724 303.83 310.548 301.521 311.36 C 300.448 311.736 299.387 312.149 298.309 312.507 C 303.363 324.039 306.166 336.777 306.166 350.174 C 306.166 350.488 306.164 350.801 306.161 351.114 C 306.664 350.957 307.166 350.799 307.663 350.64 C 308.288 350.441 308.886 350.233 309.501 350.031 C 310.825 349.596 312.146 349.161 313.434 348.713 C 314.163 348.459 314.871 348.194 315.589 347.936 C 316.734 347.523 317.879 347.11 318.998 346.684 C 319.728 346.407 320.441 346.12 321.161 345.836 C 321.941 345.53 322.713 345.219 323.482 344.905 C 326.098 336.465 327.427 327.609 327.427 318.547 C 327.427 312.571 326.853 306.669 325.721 300.942" style="fill:#3980b2;fill-opacity:1;fill-rule:nonzero;stroke:none" id="path72"/>
    <path d="M 237.409 224.615 C 200.343 224.615 168.304 246.09 153.024 277.271 C 155.402 275.336 157.879 273.515 160.442 271.817 C 163.786 266.329 167.729 261.187 172.214 256.486 C 173.699 257.413 175.173 258.356 176.632 259.328 C 177.544 259.935 178.47 260.515 179.371 261.138 C 179.692 261.36 180.013 261.583 180.332 261.807 C 183.376 260.707 186.492 259.76 189.671 258.975 C 188.014 257.728 186.346 256.498 184.652 255.311 C 183.459 254.476 182.254 253.672 181.045 252.866 C 180.052 252.204 179.082 251.499 178.079 250.856 L 178.079 250.856 C 189.284 241.015 202.646 234.128 217.082 230.779 C 217.8 231.344 218.507 231.908 219.207 232.472 C 219.895 233.025 220.594 233.58 221.266 234.132 C 222.257 234.948 223.214 235.765 224.173 236.581 C 224.757 237.079 225.357 237.577 225.931 238.075 C 226.988 238.995 228.01 239.918 229.03 240.843 C 229.473 241.245 229.934 241.645 230.371 242.049 C 231.816 243.38 233.228 244.719 234.607 246.07 C 240.938 252.086 246.948 258.524 252.595 265.332 C 259.334 268.544 265.634 272.538 271.371 277.192 C 271.264 277.037 271.157 276.883 271.049 276.729 C 261.884 263.492 251.448 251.277 240.041 240.439 C 238.278 238.712 236.446 237.004 234.573 235.302 C 234.018 234.796 233.442 234.29 232.875 233.786 C 231.463 232.529 230.013 231.273 228.53 230.021 C 228.155 229.704 227.811 229.386 227.432 229.07 L 227.432 229.07 C 227.491 229.064 227.55 229.057 227.609 229.051 C 230.891 228.701 234.164 228.527 237.43 228.526 C 237.434 228.526 237.436 228.526 237.439 228.526 L 237.439 228.526 C 237.444 228.526 237.449 228.526 237.454 228.526 C 243.546 228.527 249.61 229.134 255.634 230.334 L 255.634 230.334 C 255.73 230.353 255.825 230.372 255.921 230.392 L 255.921 230.392 C 272.684 233.92 288.082 242.181 300.421 254.274 C 311.446 265.066 319.477 278.419 323.784 293.048 L 323.784 293.048 C 322.409 293.781 321.028 294.5 319.637 295.194 C 318.652 295.687 317.675 296.198 316.682 296.672 C 309.555 300.061 302.246 302.963 294.809 305.363 C 296.071 307.687 297.241 310.071 298.309 312.507 C 299.387 312.149 300.448 311.736 301.521 311.36 C 303.83 310.548 306.134 309.724 308.419 308.817 C 309.727 308.298 311.016 307.73 312.314 307.181 C 314.359 306.314 316.4 305.433 318.419 304.491 C 319.779 303.857 321.123 303.19 322.468 302.523 C 323.55 301.987 324.65 301.5 325.721 300.942 C 326.853 306.669 327.427 312.571 327.427 318.547 L 327.427 318.547 C 327.427 327.609 326.098 336.465 323.482 344.905 C 322.713 345.219 321.941 345.53 321.161 345.836 C 320.441 346.12 319.728 346.407 318.998 346.684 C 317.879 347.11 316.734 347.523 315.589 347.936 C 314.871 348.194 314.163 348.459 313.434 348.713 C 312.146 349.161 310.825 349.596 309.501 350.031 C 308.886 350.233 308.288 350.441 307.663 350.64 C 307.166 350.799 306.664 350.957 306.161 351.114 C 306.134 353.919 305.982 356.694 305.714 359.435 C 307.616 358.861 309.473 358.274 311.304 357.679 C 312.038 357.44 312.755 357.193 313.48 356.95 C 315.184 356.379 316.865 355.795 318.512 355.198 C 318.941 355.044 319.395 354.9 319.819 354.743 L 319.819 354.743 C 316.017 363.394 310.848 371.494 304.616 378.506 C 303.205 380.073 301.746 381.586 300.241 383.044 C 299.169 385.914 297.958 388.719 296.621 391.45 C 317.8 374.226 331.339 347.972 331.339 318.546 C 331.339 266.669 289.284 224.615 237.409 224.615" style="fill:#1a161f;fill-opacity:1;fill-rule:nonzero;stroke:none" id="path74"/>
    <path d="M 237.409 257.831 C 237.409 257.831 238.486 258.786 240.234 260.487 C 240.714 260.637 241.195 260.791 241.671 260.948 C 240.292 259.859 238.871 258.816 237.409 257.831" style="fill:#917b20;fill-opacity:1;fill-rule:nonzero;stroke:none" id="path76"/>
    <path d="M 296.95 261.241 C 296.95 261.241 311.748 274.238 312.191 290.758 C 312.265 293.574 309.834 295.378 306.95 296.394 C 310.659 296.339 318.669 293.092 318.669 293.092 C 318.669 293.092 315.462 273.872 296.95 261.241" style="fill:#969799;fill-opacity:1;fill-rule:nonzero;stroke:none" id="path78"/>
    <path d="M 462.376 450.975 L 462.376 357.254 C 315.778 402.155 159.095 402.155 12.497 357.254 L 12.497 450.975 C 159.782 490.994 315.09 490.971 462.376 450.975" style="fill:#1c1827;fill-opacity:1;fill-rule:nonzero;stroke:none" id="path80"/>
    <path d="M 462.376 367.523 L 462.376 364.016 C 462.214 364.016 462.055 364.039 461.871 364.085 C 315.043 409.054 159.828 409.054 13.001 364.085 C 12.841 364.039 12.657 364.016 12.497 364.016 L 12.497 367.523 C 159.668 412.492 315.204 412.492 462.376 367.523" style="fill:#f4f4f4;fill-opacity:1;fill-rule:nonzero;stroke:none" id="path82"/>
    <path d="M 462.376 441.166 L 462.376 437.636 C 462.214 437.636 462.055 437.659 461.871 437.728 C 315.043 482.674 159.828 482.674 13.001 437.728 C 12.841 437.682 12.657 437.659 12.497 437.659 L 12.497 441.166 C 159.668 486.135 315.204 486.135 462.376 441.166" style="fill:#f4f4f4;fill-opacity:1;fill-rule:nonzero;stroke:none" id="path84"/>
    <path d="M 462.341 382.162 L 462.341 378.523 C 446.345 385.871 423.037 390.992 423.037 390.992 C 423.037 390.992 442.689 388.313 462.341 382.162" style="fill:#f4f4f4;fill-opacity:1;fill-rule:nonzero;stroke:none" id="path86"/>
    <path d="M 462.341 396.968 L 462.341 393.329 C 446.345 400.678 423.037 405.798 423.037 405.798 C 423.037 405.798 442.689 403.119 462.341 396.968" style="fill:#f4f4f4;fill-opacity:1;fill-rule:nonzero;stroke:none" id="path88"/>
    <path d="M 462.341 411.775 L 462.341 408.136 C 446.345 415.484 423.037 420.605 423.037 420.605 C 423.037 420.605 442.689 417.926 462.341 411.775" style="fill:#f4f4f4;fill-opacity:1;fill-rule:nonzero;stroke:none" id="path90"/>
    <path d="M 462.341 426.582 L 462.341 422.942 C 446.345 430.291 423.037 435.411 423.037 435.411 C 423.037 435.411 442.689 432.732 462.341 426.582" style="fill:#f4f4f4;fill-opacity:1;fill-rule:nonzero;stroke:none" id="path92"/>
    <path d="M 12.501 382.162 L 12.501 378.523 C 28.497 385.871 51.805 390.992 51.805 390.992 C 51.805 390.992 32.153 388.313 12.501 382.162" style="fill:#f4f4f4;fill-opacity:1;fill-rule:nonzero;stroke:none" id="path94"/>
    <path d="M 12.501 396.968 L 12.501 393.329 C 28.497 400.678 51.805 405.798 51.805 405.798 C 51.805 405.798 32.153 403.119 12.501 396.968" style="fill:#f4f4f4;fill-opacity:1;fill-rule:nonzero;stroke:none" id="path96"/>
    <path d="M 12.501 411.775 L 12.501 408.136 C 28.497 415.484 51.805 420.605 51.805 420.605 C 51.805 420.605 32.153 417.926 12.501 411.775" style="fill:#f4f4f4;fill-opacity:1;fill-rule:nonzero;stroke:none" id="path98"/>
    <path d="M 12.501 426.582 L 12.501 422.942 C 28.497 430.291 51.805 435.411 51.805 435.411 C 51.805 435.411 32.153 432.732 12.501 426.582" style="fill:#f4f4f4;fill-opacity:1;fill-rule:nonzero;stroke:none" id="path100"/>
    <path d="M 160.974 492.727 C 160.974 492.727 157.095 492.524 151.275 492.218 C 145.462 491.878 137.712 491.335 129.97 490.619 C 122.227 489.914 114.494 489.04 108.702 488.287 C 102.909 487.54 99.054 486.959 99.054 486.959 C 99.054 486.959 102.829 487.926 108.527 489.256 C 114.223 490.593 121.852 492.249 129.523 493.741 C 137.191 495.242 144.899 496.575 150.693 497.508 C 156.488 498.408 160.351 499.008 160.351 499.008 L 160.974 492.727" style="fill:#1c1827;fill-opacity:1;fill-rule:nonzero;stroke:none" id="path102"/>
    <path d="M 385.483 484.929 C 385.483 484.929 380.989 485.738 374.232 486.767 C 367.474 487.806 358.439 489.002 349.389 489.959 C 331.287 491.935 313.13 492.801 313.13 492.801 L 313.73 499.078 C 313.73 499.078 331.905 496.627 349.859 493.078 C 358.839 491.333 367.766 489.356 374.421 487.734 C 381.08 486.122 385.483 484.929 385.483 484.929" style="fill:#1c1827;fill-opacity:1;fill-rule:nonzero;stroke:none" id="path104"/>
    <path d="M 322.343 542.788 L 325.05 534.458 L 333.811 534.458 L 326.723 529.308 L 329.43 520.968 L 322.343 526.118 L 315.255 520.968 L 317.963 529.308 L 310.875 534.458 L 319.636 534.458 L 322.343 542.788" style="fill:#1c1827;fill-opacity:1;fill-rule:nonzero;stroke:none" id="path106"/>
    <path d="M 344.146 524.838 L 346.854 516.508 L 355.614 516.508 L 348.527 511.358 L 351.234 503.028 L 344.146 508.178 L 337.059 503.028 L 339.766 511.358 L 332.679 516.508 L 341.439 516.508 L 344.146 524.838" style="fill:#1c1827;fill-opacity:1;fill-rule:nonzero;stroke:none" id="path108"/>
    <path d="M 152.53 542.788 L 149.823 534.458 L 141.062 534.458 L 148.148 529.308 L 145.441 520.968 L 152.53 526.118 L 159.616 520.968 L 156.91 529.308 L 163.998 534.458 L 155.237 534.458 L 152.53 542.788" style="fill:#1c1827;fill-opacity:1;fill-rule:nonzero;stroke:none" id="path110"/>
    <path d="M 130.725 524.838 L 128.019 516.508 L 119.258 516.508 L 126.346 511.358 L 123.639 503.028 L 130.725 508.178 L 137.814 503.028 L 135.105 511.358 L 142.194 516.508 L 133.432 516.508 L 130.725 524.838" style="fill:#1c1827;fill-opacity:1;fill-rule:nonzero;stroke:none" id="path112"/>
    <path d="M 81.803 430.88 C 81.344 430.789 81.115 430.745 80.656 430.654 C 80.656 433.873 80.656 435.483 80.656 438.703 C 86.517 439.86 89.452 440.412 95.327 441.46 C 95.327 438.24 95.327 436.631 95.327 433.411 C 94.05 433.183 93.412 433.067 92.135 432.835 C 89.53 424.533 88.229 420.377 85.627 412.054 C 86.359 412.194 86.725 412.263 87.457 412.401 C 87.457 409.182 87.457 407.572 87.457 404.352 C 79.921 402.931 76.159 402.175 68.65 400.574 C 68.65 403.794 68.65 405.404 68.65 408.623 C 69.26 408.754 69.565 408.818 70.176 408.947 C 67.598 416.229 66.309 419.864 63.736 427.124 C 62.602 426.875 62.035 426.75 60.9 426.496 C 60.9 429.716 60.9 431.326 60.9 434.545 C 66.586 435.816 69.434 436.426 75.137 437.593 C 75.137 434.374 75.137 432.764 75.137 429.544 C 74.662 429.447 74.424 429.398 73.948 429.3 C 75.527 424.865 76.316 422.645 77.895 418.201 C 79.457 423.277 80.239 425.812 81.803 430.88" style="fill:#f4f4f4;fill-opacity:1;fill-rule:nonzero;stroke:none" id="path114"/>
    <path d="M 118.621 436.063 C 118.177 436.458 117.955 436.655 117.511 437.05 C 115.425 436.738 114.382 436.578 112.298 436.252 C 111.838 435.719 111.607 435.451 111.146 434.917 C 111.146 427.997 111.146 424.536 111.146 417.616 C 111.607 417.245 111.838 417.058 112.298 416.687 C 114.382 417.013 115.425 417.172 117.511 417.485 C 117.955 417.995 118.177 418.251 118.621 418.761 C 118.621 425.681 118.621 429.142 118.621 436.063 Z M 101.377 436.786 C 103.646 439.464 104.78 440.8 107.05 443.462 C 113.313 444.484 116.448 444.964 122.725 445.863 C 125.001 443.897 126.139 442.91 128.416 440.927 C 128.416 431.229 128.416 426.379 128.416 416.68 C 126.139 414.096 125.001 412.8 122.725 410.2 C 116.448 409.301 113.313 408.821 107.05 407.798 C 104.78 409.703 103.646 410.651 101.377 412.539 C 101.377 422.237 101.377 427.087 101.377 436.786" style="fill:#f4f4f4;fill-opacity:1;fill-rule:nonzero;stroke:none" id="path116"/>
    <path d="M 147.264 440.945 C 147.264 433.119 147.264 429.206 147.264 421.38 C 149.837 421.668 151.123 421.807 153.698 422.075 C 153.698 422.931 153.698 423.36 153.698 424.216 C 156.909 424.55 158.514 424.709 161.727 425.01 C 161.727 420.935 161.727 418.896 161.727 414.82 C 151.145 413.826 145.86 413.243 135.307 411.9 C 135.307 415.12 135.307 416.73 135.307 419.949 C 136.164 420.058 136.591 420.112 137.449 420.219 C 137.449 428.045 137.449 431.958 137.449 439.784 C 136.591 439.677 136.164 439.623 135.307 439.514 C 135.307 442.734 135.307 444.344 135.307 447.563 C 140.943 448.28 143.764 448.614 149.409 449.231 C 149.409 446.012 149.409 444.402 149.409 441.182 C 148.55 441.089 148.122 441.041 147.264 440.945" style="fill:#f4f4f4;fill-opacity:1;fill-rule:nonzero;stroke:none" id="path118"/>
    <path d="M 179.864 443.932 C 179.864 436.106 179.864 432.193 179.864 424.367 C 182.445 424.551 183.736 424.638 186.316 424.801 C 186.316 425.658 186.316 426.086 186.316 426.942 C 189.535 427.146 191.145 427.239 194.365 427.411 C 194.365 423.335 194.365 421.297 194.365 417.22 C 183.759 416.656 178.459 416.287 167.871 415.374 C 167.871 418.593 167.871 420.203 167.871 423.423 C 168.731 423.497 169.161 423.533 170.02 423.605 C 170.02 431.431 170.02 435.344 170.02 443.17 C 169.161 443.099 168.731 443.062 167.871 442.988 C 167.871 446.207 167.871 447.817 167.871 451.037 C 173.525 451.525 176.354 451.744 182.016 452.132 C 182.016 448.912 182.016 447.302 182.016 444.082 C 181.155 444.024 180.725 443.993 179.864 443.932" style="fill:#f4f4f4;fill-opacity:1;fill-rule:nonzero;stroke:none" id="path120"/>
    <path d="M 212.536 426.032 C 215.05 426.11 216.309 426.143 218.824 426.201 C 218.824 426.766 218.824 427.049 218.824 427.614 C 222.064 427.688 223.684 427.717 226.925 427.759 C 226.925 423.974 226.925 422.082 226.925 418.297 C 216.359 418.161 211.077 418.006 200.52 417.525 C 200.52 420.745 200.52 422.354 200.52 425.574 C 201.382 425.613 201.812 425.633 202.673 425.669 C 202.673 433.495 202.673 437.408 202.673 445.234 C 201.812 445.197 201.382 445.178 200.52 445.139 C 200.52 448.359 200.52 449.968 200.52 453.188 C 211.077 453.669 216.359 453.824 226.925 453.96 C 226.925 450.193 226.925 448.309 226.925 444.541 C 223.684 444.5 222.064 444.47 218.824 444.396 C 218.824 444.944 218.824 445.218 218.824 445.766 C 216.309 445.708 215.05 445.675 212.536 445.597 C 212.536 443.302 212.536 442.155 212.536 439.86 C 213.121 439.878 213.414 439.887 214 439.904 C 214 440.452 214 440.726 214 441.275 C 217.221 441.368 218.832 441.407 222.055 441.468 C 222.055 437.135 222.055 434.968 222.055 430.635 C 218.832 430.574 217.221 430.535 214 430.442 C 214 431.008 214 431.291 214 431.856 C 213.414 431.839 213.121 431.831 212.536 431.813 C 212.536 429.5 212.536 428.344 212.536 426.032" style="fill:#f4f4f4;fill-opacity:1;fill-rule:nonzero;stroke:none" id="path122"/>
    <path d="M 258.505 434.152 C 258.505 430.946 258.505 429.344 258.505 426.138 C 259.368 426.115 259.798 426.104 260.66 426.079 C 260.66 422.859 260.66 421.249 260.66 418.029 C 254.991 418.193 252.156 418.25 246.486 418.313 C 246.486 421.533 246.486 423.143 246.486 426.362 C 247.364 426.352 247.805 426.347 248.684 426.335 C 248.684 429.547 248.684 431.153 248.684 434.365 C 244.013 439.045 241.677 441.367 237.006 445.979 C 235.661 445.978 234.99 445.976 233.645 445.97 C 233.645 449.19 233.645 450.8 233.645 454.019 C 240.488 454.051 243.909 454.03 250.751 453.917 C 250.751 450.698 250.751 449.088 250.751 445.868 C 250.165 445.878 249.871 445.882 249.286 445.891 C 251.01 444.153 251.872 443.282 253.595 441.536 C 255.318 443.213 256.179 444.05 257.902 445.718 C 257.316 445.733 257.024 445.74 256.438 445.754 C 256.438 448.974 256.438 450.584 256.438 453.803 C 263.055 453.647 266.363 453.536 272.977 453.244 C 272.977 450.024 272.977 448.414 272.977 445.195 C 271.839 445.245 271.271 445.269 270.134 445.315 C 265.484 440.883 263.157 438.651 258.505 434.152" style="fill:#f4f4f4;fill-opacity:1;fill-rule:nonzero;stroke:none" id="path124"/>
    <path d="M 297.16 429.467 C 296.696 429.947 296.464 430.187 295.998 430.666 C 294.038 430.808 293.058 430.876 291.096 431.007 C 291.096 428.455 291.096 427.18 291.096 424.628 C 293.058 424.498 294.038 424.43 295.998 424.287 C 296.464 424.698 296.696 424.904 297.16 425.315 C 297.16 426.976 297.16 427.806 297.16 429.467 Z M 297.16 442.62 C 296.696 443.113 296.464 443.359 295.998 443.852 C 294.038 443.994 293.058 444.062 291.096 444.193 C 291.096 442.138 291.096 441.111 291.096 439.056 C 293.058 438.925 294.038 438.857 295.998 438.715 C 296.464 439.14 296.696 439.352 297.16 439.776 C 297.16 440.914 297.16 441.482 297.16 442.62 Z M 307.003 431.504 C 307.003 427.325 307.003 425.236 307.003 421.057 C 304.718 418.977 303.575 417.932 301.289 415.836 C 292.416 416.539 287.975 416.83 279.09 417.288 C 279.09 420.508 279.09 422.118 279.09 425.338 C 279.95 425.293 280.382 425.27 281.243 425.224 C 281.243 433.049 281.243 436.962 281.243 444.788 C 280.382 444.835 279.95 444.858 279.09 444.902 C 279.09 448.122 279.09 449.732 279.09 452.952 C 287.975 452.493 292.416 452.202 301.289 451.499 C 303.575 449.029 304.718 447.789 307.003 445.302 C 307.003 441.664 307.003 439.845 307.003 436.207 C 306.058 435.349 305.586 434.92 304.639 434.059 C 305.586 433.038 306.058 432.527 307.003 431.504" style="fill:#f4f4f4;fill-opacity:1;fill-rule:nonzero;stroke:none" id="path126"/>
    <path d="M 329.196 429.62 C 331.015 429.412 331.923 429.306 333.741 429.088 C 332.832 431.457 332.378 432.642 331.468 435.009 C 330.559 432.854 330.106 431.777 329.196 429.62 Z M 341.109 447.349 C 341.109 444.13 341.109 442.52 341.109 439.3 C 340.389 439.393 340.029 439.439 339.309 439.531 C 342.445 431.307 344.012 427.187 347.145 418.932 C 348 418.815 348.428 418.755 349.284 418.636 C 349.284 415.416 349.284 413.806 349.284 410.587 C 343.807 411.352 341.068 411.71 335.582 412.381 C 335.582 415.601 335.582 417.211 335.582 420.43 C 336.046 420.374 336.277 420.345 336.739 420.288 C 336.534 420.947 336.432 421.276 336.226 421.935 C 332.439 422.401 330.544 422.623 326.752 423.045 C 326.529 422.436 326.417 422.132 326.194 421.523 C 326.657 421.472 326.889 421.446 327.352 421.394 C 327.352 418.175 327.352 416.565 327.352 413.345 C 321.88 413.958 319.141 414.241 313.662 414.76 C 313.662 417.979 313.662 419.589 313.662 422.809 C 314.52 422.727 314.95 422.686 315.81 422.602 C 318.952 430.122 320.523 433.875 323.663 441.364 C 323.046 441.43 322.737 441.463 322.118 441.528 C 322.118 444.748 322.118 446.357 322.118 449.577 C 329.723 448.776 333.521 448.33 341.109 447.349" style="fill:#f4f4f4;fill-opacity:1;fill-rule:nonzero;stroke:none" id="path128"/>
    <path d="M 367.27 435.482 C 367.27 427.656 367.27 423.743 367.27 415.917 C 369.83 415.501 371.109 415.287 373.666 414.85 C 373.666 415.706 373.666 416.135 373.666 416.991 C 376.855 416.446 378.448 416.166 381.632 415.589 C 381.632 411.512 381.632 409.474 381.632 405.398 C 371.144 407.299 365.887 408.163 355.355 409.715 C 355.355 412.935 355.355 414.545 355.355 417.764 C 356.21 417.638 356.638 417.575 357.492 417.446 C 357.492 425.272 357.492 429.185 357.492 437.011 C 356.638 437.14 356.21 437.203 355.355 437.329 C 355.355 440.549 355.355 442.159 355.355 445.379 C 360.979 444.549 363.789 444.11 369.403 443.181 C 369.403 439.962 369.403 438.352 369.403 435.132 C 368.55 435.273 368.124 435.343 367.27 435.482" style="fill:#f4f4f4;fill-opacity:1;fill-rule:nonzero;stroke:none" id="path130"/>
    <path d="M 399.567 429.553 C 399.567 421.727 399.567 417.814 399.567 409.988 C 402.112 409.467 403.384 409.201 405.927 408.659 C 405.927 409.516 405.927 409.944 405.927 410.8 C 409.096 410.125 410.68 409.78 413.845 409.072 C 413.845 404.996 413.845 402.958 413.845 398.882 C 403.421 401.212 398.193 402.29 387.716 404.272 C 387.716 407.492 387.716 409.101 387.716 412.321 C 388.566 412.16 388.992 412.079 389.841 411.916 C 389.841 419.742 389.841 423.655 389.841 431.481 C 388.992 431.644 388.566 431.725 387.716 431.886 C 387.716 435.106 387.716 436.715 387.716 439.935 C 393.312 438.877 396.107 438.323 401.688 437.165 C 401.688 433.945 401.688 432.335 401.688 429.115 C 400.84 429.292 400.416 429.379 399.567 429.553" style="fill:#f4f4f4;fill-opacity:1;fill-rule:nonzero;stroke:none" id="path132"/>
    <path d="M 226.507 533.731 C 226.507 530.473 225.509 528.093 223.514 526.592 C 221.519 525.091 218.215 524.341 213.602 524.341 C 208.806 524.341 205.438 525.091 203.497 526.592 C 201.557 528.093 200.586 530.546 200.586 533.951 L 200.586 555.863 C 200.586 558.975 201.547 561.226 203.47 562.618 C 205.392 564.009 208.714 564.704 213.437 564.704 C 217.904 564.704 221.043 564.137 222.855 563.002 C 224.667 561.867 225.573 559.835 225.573 556.906 L 225.573 552.348 L 216.402 552.348 L 216.402 553.941 C 216.402 555.662 215.386 556.522 213.355 556.522 C 212.229 556.522 211.451 556.284 211.011 555.808 C 210.581 555.332 210.362 554.691 210.362 553.886 L 210.362 535.873 C 210.362 534.848 210.609 534.088 211.103 533.594 C 211.597 533.1 212.467 532.853 213.711 532.853 C 214.005 532.853 214.224 532.853 214.37 532.853 C 215.139 532.853 215.67 532.999 215.963 533.292 C 216.402 533.731 216.622 534.628 216.622 535.983 L 216.622 541.2 L 212.503 541.2 L 212.503 548.998 L 226.507 548.998 Z M 274.285 552.238 L 267.091 552.238 L 267.091 553.831 C 267.091 555.368 266.23 556.138 264.51 556.138 L 264.51 524.67 L 254.734 524.67 C 254.734 528.807 254.734 532.853 254.734 536.807 C 254.734 540.761 254.734 545.502 254.734 551.03 L 254.734 555.259 C 254.734 555.479 254.734 555.771 254.734 556.138 C 254.048 556.138 253.453 556.009 252.959 555.753 C 252.465 555.496 252.171 555.186 252.098 554.82 L 252.098 552.238 L 244.904 552.238 L 244.904 556.082 C 244.904 559.085 245.563 561.19 246.881 562.398 C 248.2 563.606 250.543 564.21 253.911 564.21 L 265.279 564.21 C 268.647 564.21 270.99 563.606 272.308 562.398 C 273.626 561.19 274.285 559.085 274.285 556.082 L 274.285 552.238" style="fill:#231f20;fill-opacity:1;fill-rule:nonzero;stroke:none" id="path134"/>
    <path d="M 180.649 493.741 L 175.624 493.741 C 173.918 493.741 172.685 494.131 171.925 494.911 C 171.166 495.691 170.786 496.997 170.786 498.829 L 170.786 507.193 C 170.786 508.92 171.14 510.22 171.847 511.094 C 172.555 511.968 173.554 512.405 174.844 512.405 L 180.618 512.405 L 180.618 507.942 L 177.538 507.942 C 176.514 507.942 175.998 507.411 175.998 506.35 L 175.998 499.639 C 175.998 499.078 176.113 498.693 176.342 498.485 C 176.576 498.277 177.002 498.173 177.632 498.173 L 180.649 498.173 Z M 205.274 499.296 C 205.274 497.049 204.821 495.515 203.916 494.693 C 203.011 493.871 201.268 493.46 198.688 493.46 C 196.129 493.46 194.392 493.866 193.476 494.677 C 192.561 495.489 192.103 497.029 192.103 499.296 L 192.103 512.405 L 197.315 512.405 L 197.315 498.547 C 197.315 498.006 197.757 497.673 198.641 497.549 C 199.094 497.549 199.443 497.616 199.693 497.752 C 199.937 497.887 200.062 498.152 200.062 498.547 L 200.062 512.405 L 205.274 512.405 Z M 230.71 498.547 C 230.752 498.339 230.773 498.136 230.773 497.939 C 230.773 497.741 230.773 497.549 230.773 497.361 C 230.773 496.113 230.482 495.198 229.899 494.615 C 229.316 494.032 228.401 493.741 227.152 493.741 L 222.814 493.741 L 222.814 497.861 L 224.312 497.861 C 225.082 497.861 225.467 498.225 225.467 498.953 C 225.467 499.14 225.467 499.296 225.467 499.421 L 224.375 507.692 C 224.375 507.879 224.271 508.046 224.063 508.191 C 223.854 508.337 223.595 508.41 223.282 508.41 C 222.658 508.347 222.346 508.046 222.346 507.505 L 222.346 489.278 L 217.134 489.278 L 217.134 506.891 C 217.134 508.946 217.56 510.402 218.414 511.25 C 219.37 512.207 221.066 512.686 223.501 512.686 C 225.789 512.686 227.319 512.405 228.089 511.843 C 228.859 511.281 229.348 510.095 229.556 508.285 Z M 255.21 493.741 L 242.102 493.741 L 242.102 496.8 C 242.102 497.653 242.186 498.381 242.352 498.984 C 242.602 499.879 243.059 500.701 243.725 501.45 L 248.375 506.6 C 248.812 507.099 249.155 507.604 249.405 508.113 C 249.655 508.623 249.78 509.138 249.78 509.659 L 249.78 511.094 C 249.78 511.885 249.416 512.28 248.688 512.28 C 248.354 512.28 248.063 512.176 247.814 511.968 C 247.564 511.76 247.439 511.458 247.439 511.063 L 247.439 508.379 L 242.602 508.379 L 242.602 511.874 C 242.602 513.518 243.101 514.714 244.1 515.463 C 245.098 516.213 246.69 516.587 248.875 516.587 C 251.018 516.587 252.594 516.254 253.603 515.588 C 254.612 514.928 255.117 513.804 255.117 512.223 L 255.117 509.357 C 255.117 508.55 254.966 507.775 254.664 507.037 C 254.363 506.298 253.868 505.497 253.182 504.623 L 248.625 499.359 L 248.063 498.391 L 255.21 498.391 Z M 271.783 498.859 C 271.783 496.612 271.31 495.135 270.363 494.428 C 269.416 493.72 267.58 493.366 264.855 493.366 C 262.15 493.366 260.36 493.699 259.486 494.365 C 258.529 495.093 258.051 496.591 258.051 498.859 L 258.051 511.094 C 258.051 513.382 258.477 514.87 259.33 515.557 C 260.184 516.244 262.046 516.587 264.917 516.587 C 267.622 516.587 269.443 516.238 270.379 515.541 C 271.315 514.845 271.783 513.362 271.783 511.094 Z M 266.571 499.546 L 266.571 510.439 C 266.571 511.146 266.436 511.635 266.165 511.905 C 265.895 512.176 265.458 512.311 264.855 512.311 C 264.314 512.311 263.913 512.165 263.653 511.874 C 263.393 511.583 263.263 511.104 263.263 510.439 L 263.263 499.546 C 263.263 498.859 263.393 498.386 263.653 498.126 C 263.913 497.866 264.334 497.736 264.917 497.736 C 265.5 497.736 265.921 497.855 266.181 498.095 C 266.441 498.334 266.571 498.818 266.571 499.546 Z M 287.669 493.741 L 274.561 493.741 L 274.561 496.8 C 274.561 497.653 274.645 498.381 274.811 498.984 C 275.061 499.879 275.518 500.701 276.184 501.45 L 280.834 506.6 C 281.271 507.099 281.614 507.604 281.864 508.113 C 282.114 508.623 282.239 509.138 282.239 509.659 L 282.239 511.094 C 282.239 511.885 281.875 512.28 281.146 512.28 C 280.813 512.28 280.522 512.176 280.273 511.968 C 280.023 511.76 279.898 511.458 279.898 511.063 L 279.898 508.379 L 275.061 508.379 L 275.061 511.874 C 275.061 513.518 275.56 514.714 276.559 515.463 C 277.557 516.213 279.149 516.587 281.334 516.587 C 283.477 516.587 285.053 516.254 286.062 515.588 C 287.071 514.928 287.576 513.804 287.576 512.223 L 287.576 509.357 C 287.576 508.55 287.425 507.775 287.123 507.037 C 286.821 506.298 286.327 505.497 285.641 504.623 L 281.084 499.359 L 280.522 498.391 L 287.669 498.391 Z M 303.899 493.741 L 290.791 493.741 L 290.791 496.8 C 290.791 497.653 290.874 498.381 291.04 498.984 C 291.29 499.879 291.748 500.701 292.413 501.45 L 297.064 506.6 C 297.501 507.099 297.844 507.604 298.094 508.113 C 298.343 508.623 298.468 509.138 298.468 509.659 L 298.468 511.094 C 298.468 511.885 298.104 512.28 297.376 512.28 C 297.043 512.28 296.752 512.176 296.502 511.968 C 296.252 511.76 296.128 511.458 296.128 511.063 L 296.128 508.379 L 291.29 508.379 L 291.29 511.874 C 291.29 513.518 291.789 514.714 292.788 515.463 C 293.787 516.213 295.379 516.587 297.563 516.587 C 299.706 516.587 301.282 516.254 302.291 515.588 C 303.301 514.928 303.805 513.804 303.805 512.223 L 303.805 509.357 C 303.805 508.55 303.654 507.775 303.353 507.037 C 303.051 506.298 302.557 505.497 301.87 504.623 L 297.314 499.359 L 296.752 498.391 L 303.899 498.391 L 303.899 493.741" style="fill:#231f20;fill-opacity:1;fill-rule:nonzero;stroke:none" id="path136"/>
    <path d="M 295.348 561.152 L 298.055 552.822 L 306.816 552.822 L 299.728 547.672 L 302.435 539.332 L 295.348 544.482 L 288.26 539.332 L 290.968 547.672 L 283.88 552.822 L 292.641 552.822 L 295.348 561.152" style="fill:#1c1827;fill-opacity:1;fill-rule:nonzero;stroke:none" id="path138"/>
    <path d="M 181.347 561.152 L 184.054 552.822 L 192.815 552.822 L 185.727 547.672 L 188.434 539.332 L 181.347 544.482 L 174.259 539.332 L 176.967 547.672 L 169.879 552.822 L 178.64 552.822 L 181.347 561.152" style="fill:#1c1827;fill-opacity:1;fill-rule:nonzero;stroke:none" id="path140"/>
  </g>
</svg>