<svg xmlns="http://www.w3.org/2000/svg" xmlns:xlink="http://www.w3.org/1999/xlink" width="150" height="159" viewBox="0 0 150 159" stroke="#000" stroke-linecap="round" stroke-linejoin="round" fill="#fff" fill-rule="evenodd"><g stroke="none" fill-rule="nonzero"><path d="M72.8779 157.0401C44.332 140.295 24.438 118.8896 13.7264 93.4027L0 87.073V51.7865l4.0072-1.0858c-.3126-4.3579-.4807-8.9409-.5108-13.9122l-.0237-3.9696 3.9678.0477.2061.006c10.0973 0 18.3168-8.2213 18.3168-18.3245 0-.7728-.0524-1.5553-.1609-2.3889l-.4826-3.7161L74.8507 0l49.5307 8.4431-.4827 3.7161c-.1086.8336-.1614 1.6161-.1614 2.3889 0 10.1032 8.2195 18.3245 18.3228 18.3245l.2001-.006 3.9678-.0477-.0237 3.9696c-.0305 4.9435-.1959 9.5012-.5049 13.8342l1.4247.3824 2.8759.7814v34.9043l-14.0993 6.8915c-10.727 25.4048-30.5957 46.75-59.0774 63.4578l-1.9726 1.1574-1.9728-1.1574"/><path d="M3.7416 73.8094l16.3661-7.8176-1.8024 15.9067zm142.5172 0l-16.3658-7.8176 1.8021 15.9067z" fill="#2e2d2e"/><path d="M142.2097 36.7695c-12.2724 0-22.2208-9.948-22.2208-22.2211 0-.9791.0698-1.9424.1931-2.8897L75.0002 3.9539 29.818 11.6587c.1237.9473.1939 1.9106.1939 2.8897 0 12.2731-9.9492 22.2211-22.2208 22.2211-.0827 0-.1638-.0031-.2461-.006.2045 33.7564 6.8523 81.3628 67.4552 116.9143 60.6029-35.5515 67.2504-83.1579 67.4556-116.9143l-.2461.006" fill="#1c1827"/><path d="M75.0003 147.6218c-52.2006-31.7737-61.2757-72.705-62.1794-106.1154 12.2577-2.2814 21.6746-12.7457 22.3505-25.4882l39.8289-6.7925 39.8285 6.7925c.6767 12.7425 10.0939 23.2068 22.351 25.4886-.9038 33.4108-9.9799 74.3413-62.1795 106.115"/><path d="M134.5139 43.5714c-.1493 3.853-.403 7.5634-.7801 11.1505-1.5397 14.808-5.0348 27.5376-10.7472 39.3246-9.6687 19.9548-25.3743 36.4982-47.9867 50.5269-22.6122-14.0287-38.3176-30.5721-47.986-50.5269-5.7117-11.787-9.2078-24.5166-10.7476-39.3246-.3768-3.5871-.6302-7.2975-.7797-11.1505 11.872-3.132 20.6043-13.1318 22.0994-25.329l37.4139-6.3808 37.415 6.3808a29.917 29.917 0 0 0 22.099 25.329" fill="#51ade5"/><path d="M109.0266 21.6193l-34.0265-5.8007-34.0258 5.8007C38.5679 33.0725 30.5016 42.3774 19.52 46.3882l.2987 4.4345h110.3631l.2987-4.4345c-10.9818-4.0108-19.0481-13.3157-21.4539-24.7689"/><path d="M130.1818 50.8228H19.8187l-.2988-4.4344c10.9816-4.0107 19.0479-13.316 21.4543-24.769l34.0257-5.8009 34.0266 5.8009c2.4058 11.453 10.4721 20.7583 21.454 24.769l-.2987 4.4344zm-17.7669-32.5804l-37.415-6.3808-37.4139 6.3808c-1.4951 12.1972-10.2274 22.197-22.0994 25.329.1495 3.853.4029 7.5634.7797 11.1505h117.4675c.3771-3.5871.6308-7.2975.7801-11.1505a29.917 29.917 0 0 1-22.099-25.329" fill="#51ade5"/><path d="M75.0002 144.5736v-14.271h.0245c3.5441 0 7.0868-.5543 10.4661-1.6649 7.1504-2.3497 13.401-7.1661 17.5296-13.4569a33.276 33.276 0 0 0 2.6387-4.859l-.4991 1.1357.5027-1.1427.4095-.9318h.0003c.0002-.0017.0004-.0026.0008-.0036l.0007-.001v-.0007h0v.0007c-.0011.002-.0013.0029-.0015.0046h-.0003l-.4055.9234c2.7273-6.2103 3.5001-13.2154 2.2119-19.8733-1.2732-6.585-4.5517-12.6816-9.3136-17.4011-5.1203-5.0745-11.8295-8.3969-18.9722-9.3833-1.5126-.2091-3.0388-.3127-4.5628-.3127h-.0298v-8.6143h58.7333c-1.5394 14.8084-5.0352 27.5375-10.7467 39.3246-9.6691 19.9552-25.3742 36.4986-47.9866 50.5273" fill="#3f84af"/><path d="M130.1815 50.8227H75.0002V15.8186l34.0266 5.8007c2.4053 11.4532 10.4716 20.7581 21.4534 24.7689l-.2987 4.4345" fill="#c1c0bd"/><path d="M133.7335 54.7219H75.0002v-3.8991h55.1813l.2987-4.4344h0c-10.9818-4.0107-19.0481-13.316-21.4534-24.769l-34.0266-5.8009v-3.9569l37.4149 6.3808c1.4942 12.1972 10.2273 22.197 22.0984 25.329-.1491 3.853-.4029 7.5634-.78 11.1505" fill="#3f84af"/><path d="M103.0204 115.1808c1.0123-1.543 1.8956-3.1699 2.6388-4.859-.4159.9456-.8784 1.9978.0033-.0077l.0034-.0079c2.7278-6.2103 3.501-13.2151 2.2129-19.8732-1.2733-6.5854-4.5523-12.6816-9.3138-17.4009-5.1202-5.0748-11.8298-8.3972-18.9724-9.3836-6.262-.8647-12.7329.0752-18.4867 2.6944-6.5999 3.0045-12.1499 8.1985-15.5878 14.5841-3.2011 5.9459-4.5379 12.8232-3.811 19.536.6933 6.3921 3.2567 12.5272 7.3223 17.5089 4.3368 5.3132 10.2682 9.227 16.8723 11.0799 6.3942 1.7937 13.2772 1.6602 19.5886-.4143 7.1508-2.3497 13.4016-7.166 17.5301-13.4567" fill="#f4f4f4"/><path d="M101.043 104.0437l-.9364-.4684c-2.8478-1.3541-5.7883-2.4634-8.7845-3.3171l-2.3826 4.4478-3.2901 5.1877c-2.9039 4.1935-6.2099 8.0634-9.8238 11.497-.5586.5474-1.1389 1.0886-1.7326 1.6277l-.5379.4804-1.3765 1.1925-.3479.3008c3.0326.3297 6.0442.1854 9.0256-.4182 5.3109-1.1179 10.1893-3.735 14.0983-7.5665 3.4933-3.4191 6.0375-7.6495 7.4019-12.2841l-1.3135-.6796"/><path d="M55.7363 115.4063l.8683-.5731 2.6165-1.9149.1044-.0857 2.4076-1.9911.7854-.7138 1.2001-1.118-.0649-.1003-1.1704-1.7909-.2408-.3867-1.2189-2.0254-2.8458-5.4086c-2.2044-4.6327-3.9225-9.4386-5.1031-14.2822-.3039-1.209-.5626-2.4089-.7988-3.6011l-.1618-.8389-.1491-.7723c-1.7767 2.4157-3.1396 5.0759-4.0645 7.9386-.9487 2.8458-1.428 5.8382-1.428 8.9029 0 2.4385.3004 4.8371.8926 7.1301 1.2036 4.692 3.6068 9.0043 6.9718 12.5319l1.3994-.9005" fill="#51ade5"/><path d="M68.3811 70.6324l.0592 1.005.3457 3.2338.0256.1558.5106 3.0434.2256 1.0448.3626 1.5762 1.3834-.0681.8361-.0408 2.7513-.0541 6.2394.2403c5.0567.4176 10.0718 1.3408 14.9078 2.743.8155.2386 1.6021.4847 2.3742.7356l.6895.231 1.5942.5552.414.1441c-1.2042-2.7408-2.842-5.3071-4.8167-7.5285-3.6904-4.0993-8.42-7.0393-13.668-8.497-4.6914-1.2813-9.6841-1.3552-14.3145-.2291l.08 1.7094m1.392 35.5375l-.8448 1.0173-2.7048 2.8753-.0007.0011-.0011.0015-.1158.1081-2.41 2.2456-.8726.7366-1.7807 1.4724-1.0532.7989-1.7121 1.2526-1.1429.7745-.9395.6366c3.5497 3.118 7.7831 5.2998 12.3567 6.3607l.6731-.5363.6527-.526.9205-.7757.5571-.4735.9821-.8768.425-.3822c.4576-.4211.9048-.8458 1.3417-1.274 3.5052-3.3303 6.7006-7.0698 9.5103-11.1291 1.0819-1.5479 2.1213-3.1862 3.1805-5.0142.4502-.7769.8779-1.5587 1.294-2.3409l.3606-.693.4102-.8214-1.4017-.3387-1.2887-.2818c-.8554-.1694-1.7167-.3091-2.5798-.4393l-1.0086-.1591c-1.2007-.1589-2.4071-.2835-3.6188-.3669-.2116-.0141-.4245-.0138-.6361-.0258-.8772-.0505-1.7568-.078-2.6383-.0883-.3249.5464-.6812 1.0697-1.0219 1.6046l-.9001 1.4132c-.4464.6609-.9222 1.2981-1.3929 1.9399l-.9278 1.273c-.5373.6941-1.1059 1.3615-1.6716 2.0311" fill="#f9cb17"/><path d="M101.5257 87.9991l-.6851-.2686-1.0801-.3963-.6828-.2465-1.2462-.4174-.5823-.1929-1.913-.5851c-4.6765-1.3565-9.5267-2.2484-14.4158-2.653-.9125-.0727-1.8322-.1261-2.7561-.1644l-1.0433-.0281-1.7494-.035c-.3904-.002-.7804.0046-1.1705.0078l-1.6734.0332-1.1489.0482-.8001.0473.4139 1.3761.4148 1.2787c.2841.8221.5953 1.6352.9166 2.4447l.3714.9569c.4674 1.1205.966 2.2288 1.5027 3.3202.091.1847.1949.3635.2879.5475.3979.7889.8167 1.5672 1.2501 2.3381.6321.0082 1.26.0561 1.8898.0836l1.6956.0743c.7899.0567 1.5739.1512 2.3588.2386l1.5865.1724c.8565.1189 1.7044.2795 2.5533.4347.4473.0823.8995.1431 1.3441.2354 1.2817.265 2.5537.5709 3.8129.9201l.0047.0003.0129.0031.0013.0006c1.0965.2909 2.1846.6203 3.2669.9773.3493.1143.6926.2492 1.0406.3709l2.1853.8057c.4141.1647.8226.3445 1.2341.5184l1.9342.8521c.4306.2011.8569.4125 1.2825.6237l1.0309.5007c.3587-1.8144.5406-3.6846.5406-5.5774 0-2.8712-.4212-5.6769-1.2501-8.3505l-.7353-.2954" fill="#51ade5"/><path d="M54.6442 80.647l.8365 3.7729c1.1429 4.6874 2.8028 9.3324 4.9367 13.8156.8214 1.7368 1.7465 3.4946 2.7514 5.2277.3527.6097.7014 1.1868 1.049 1.7503l.2722.4379.9508 1.4746c.0198.0294.0393.0605.0586.0899l1.0088-1.0723.8845-.9803c.5724-.6599 1.1227-1.3389 1.6659-2.0247l.6354-.7902c.736-.9631 1.4457-1.9482 2.1231-2.9577.1188-.1775.2259-.3635.343-.5421.4797-.7325.9417-1.4772 1.3896-2.2313-.3103-.5515-.5842-1.1209-.8769-1.681l-.78-1.4947c-.348-.7126-.6606-1.4399-.9793-2.1649l-.6462-1.4545c-.3309-.8085-.6228-1.6313-.919-2.4526-.1521-.4208-.3233-.8343-.4654-1.2583-.4204-1.2511-.8027-2.5145-1.1406-3.7901-.2893-1.1063-.5421-2.2211-.769-3.342-.0747-.3715-.1307-.746-.1994-1.1185l-.3799-2.2649c-.0634-.4437-.1113-.8888-.165-1.3334l-.2226-2.0843c-.0413-.4717-.0708-.9435-.1005-1.4164l-.0791-1.1224c-4.4597 1.5085-8.4828 4.1123-11.7374 7.6025.0972.7059.2183 1.424.3437 2.1443l.2111 1.2609"/><path d="M102.9702 102.2226l-1.0305-.501-1.283-.6234-1.9341-.8523-1.2337-.5184-2.1857-.8055-1.0401-.371-3.2672-.9768-.001-.0006-.0135-.0036-.004-.0003-3.813-.9204-1.344-.2347-2.5535-.435-1.5864-.1725-2.3589-.2386-1.6953-.0745-1.8901-.0834-1.2506-2.338-.2877-.5478-1.5023-3.3195-.372-.9575-.9166-2.4442-.4143-1.2791-.4138-1.3761.7996-.0472 1.1494-.0482 1.6729-.0328 1.1709-.0085 1.7492.0352 1.0433.0279 2.7559.1645c4.889.4046 9.7397 1.2966 14.4158 2.6529l1.9136.5852.5821.193 1.2462.4175.6824.2463 1.0806.3965.685.2686.7351.2951c.8287 2.6737 1.2499 5.4794 1.2499 8.3507 0 1.8932-.182 3.7631-.5406 5.5775zm-29.205-1.2969c.3122-.4624.6-.9419.9-1.4129.3408-.5352.6976-1.0587 1.0222-1.6046.8812.0104 1.7613.0379 2.638.0884.2117.0119.425.0117.6368.0259 1.2116.0829 2.418.2074 3.6187.3665.3378.0449.6719.1086 1.008.1593.8636.1299 1.7245.2699 2.5799.4393.4321.0854.86.1864 1.2887.2819.4697.1042.9358.222 1.4022.3381l-.4109.8217-.3605.6929c-.4154.7822-.8433 1.5645-1.2935 2.3408-1.0598 1.8281-2.0989 3.4663-3.1805 5.0147-2.8097 4.059-6.0051 7.7987-9.5102 11.1291a59.38 59.38 0 0 1-1.3423 1.2739l-.425.3821-.9815.8769-.557.4734-.9213.7759-.652.5259-.6731.5363c-4.5736-1.0609-8.807-3.243-12.3568-6.3607.3174-.2036.625-.427.9396-.6368l1.1428-.7743c.5779-.4053 1.146-.8267 1.7121-1.2526l1.0527-.7988c.6041-.4757 1.1941-.9723 1.7813-1.4725l.8723-.737a62.237 62.237 0 0 0 2.4101-2.2452c.0375-.0371.078-.0705.1155-.1082l.001-.0013.0013-.0012c.9331-.9279 1.8332-1.8882 2.7048-2.8749.2911-.3309.5598-.681.8442-1.0177.5662-.6697 1.135-1.337 1.6722-2.0315.3209-.4149.6172-.8489.9279-1.2727l1.3923-1.9401zm-7.939-31.2865c.0166.3748.0565.748.0797 1.1225l.1001 1.4161c.0599.6971.1387 1.3906.223 2.0844l.165 1.3336c.109.758.2427 1.5114.3799 2.2648l.1994 1.1187c.2269 1.1206.4797 2.2358.7691 3.3418.3378 1.2758.7201 2.5393 1.1406 3.79.142.424.3132.8376.4653 1.2583.2967.8217.5877 1.6445.9191 2.453.2014.4904.4322.9687.6457 1.4545l.9797 2.1647c.2464.5052.5195.9964.7801 1.4949.2926.5605.5665 1.1296.8769 1.6809-.4485.754-.9101 1.4989-1.3897 2.2309-.1171.1788-.2242.365-.343.5425-.6774 1.0093-1.387 1.9944-2.1231 2.9579-.2056.2687-.4257.525-.6354.7897-.5431.6859-1.0936 1.3649-1.6658 2.0248-.2888.3327-.5888.6544-.8845.9806-.3305.3635-.6696.7172-1.0089 1.0719l-.0586-.0898a59.005 59.005 0 0 1-.9508-1.4746l-.2722-.4377-1.0489-1.7506c-1.005-1.7329-1.9301-3.4909-2.7515-5.2273-2.1339-4.4832-3.7938-9.1285-4.9366-13.816-.3192-1.2688-.5954-2.5277-.8366-3.7727-.0827-.426-.1383-.8392-.2111-1.2609l-.3437-2.1443c3.2547-3.4903 7.2778-6.0939 11.7368-7.6026zm16.7892-.4873c5.248 1.4577 9.9776 4.3979 13.6685 8.4969 1.9742 2.2217 3.6119 4.788 4.8166 7.5286-.1343-.0496-.2785-.0952-.4144-.144l-1.5938-.5551-.6894-.2311-2.3747-.7356c-4.8361-1.4021-9.8507-2.3253-14.9073-2.7428-2.0569-.1653-4.1454-.2437-6.2394-.2406-.9272.0011-1.8415.021-2.7518.0542l-.8356.0408-1.384.0682-.3625-1.5762-.2256-1.0449c-.1961-1.0095-.3682-2.0241-.5107-3.0433-.0071-.0521-.0183-.1038-.0255-.1559-.147-1.074-.2587-2.1527-.3457-3.2337-.0265-.3343-.0382-.67-.0593-1.0049-.0354-.5689-.0611-1.1389-.0799-1.7095 4.631-1.126 9.6236-1.0523 14.3145.2289zM46.4727 96.6451c0-3.0651.4792-6.0573 1.4279-8.9034a27.74 27.74 0 0 1 4.0644-7.938c.044.255.1016.515.1493.7716l.1617.8388c.2358 1.1928.4949 2.3925.7988 3.6018 1.1806 4.8431 2.8982 9.6494 5.1026 14.2821.8494 1.7961 1.8067 3.6157 2.8463 5.4083.41.7079.8148 1.3754 1.2184 2.0254l.2408.3869c.3897.6187.7797 1.2163 1.1703 1.7908.0222.0321.0434.0683.0655.1002l-1.2001 1.1183-.7858.7138c-.7868.6851-1.5886 1.3506-2.407 1.991-.0356.0276-.0694.058-.1046.0859-.855.6653-1.7296 1.3001-2.6171 1.9143-.2854.1974-.5786.3813-.8676.5736-.4622.3083-.9292.6066-1.3999.9004-3.3645-3.5278-5.768-7.84-6.9714-12.532-.5922-2.2932-.8925-4.6919-.8925-7.1298zm34.3837 27.9288c-2.9815.6036-5.9931.748-9.0258.4188.1202-.1.2293-.201.348-.3013l1.3764-1.1928.5379-.4803c.5937-.5391 1.174-1.0803 1.7327-1.6276 3.6138-3.4336 6.9203-7.3034 9.8238-11.4971 1.1191-1.6016 2.1961-3.2987 3.2902-5.1873.8542-1.473 1.6528-2.9654 2.3824-4.4477 2.996.8534 5.9367 1.9626 8.7845 3.3167.3146.1502.6244.3121.9365.4684l1.3135.6796c-1.3645 4.6347-3.9086 8.8652-7.4014 12.2843-3.9095 3.8312-8.788 6.4485-14.0987 7.5663zm23.5851-37.5928l-.0013-.0072c-1.3212-4.0218-3.4993-7.8158-6.3078-10.9771-4.0145-4.4569-9.15-7.6498-14.8587-9.2348-5.4515-1.4897-11.2611-1.4754-16.5878.0211h-.0006l-.0044.0012-.002.0011c-5.7054 1.5795-10.833 4.7715-14.828 9.2314l-.0036.0025c-2.8706 3.2096-4.9932 6.8966-6.3022 10.949-1.03 3.0891-1.5517 6.3446-1.5517 9.6768 0 2.6468.3269 5.2542.971 7.7478 1.3965 5.4433 4.2756 10.4172 8.3268 14.3838l.0007.0012c4.2506 4.1664 9.5459 7.0093 15.3136 8.2244l.0085.0006.0037.0019c2.122.4243 4.2665.6389 6.3734.6389 2.115 0 4.2539-.2146 6.366-.6414 5.7842-1.2179 11.087-4.0619 15.3324-8.2238 4.0527-3.9667 6.9327-8.9413 8.3295-14.3856l.0006-.0051c.6438-2.4939.9696-5.0987.9696-7.7427 0-3.3273-.5203-6.5787-1.5477-9.664" fill="#1c1827"/><path d="M75.8866 115.0391c2.1694-2.1129 7.5983-7.8617 8.5126-13.3021.1952-1.1638-.5582-1.7605-1.5201-2.0063.1369-.0211.2887-.0304.4503-.0304 1.3854 0 3.5083.6871 3.5083.6871s-3.6327 9.0858-10.4957 14.5057l-.4554.146m-5.8734-40.9278l-.5852-3.6277s2.383-.5839 5.8306-.5839c2.8213 0 6.3553.391 9.8808 1.8131 0 0-4.2589-1.1479-8.5988-1.1479-1.9116 0-3.8379.2223-5.4243.8634-.8841.3573-.4048 2.121-1.1031 2.683" fill="#c2a419"/><path d="M73.8937 88.5806l-1.2329-3.7837s2.5973-.3959 6.4141-.3959c4.058 0 9.4936.4466 14.6539 2.2897 0 0-6.6082-1.7396-12.7169-1.7396-2.3086 0-4.5457.2492-6.328.9335-1.1012.4234.0694 1.9782-.7902 2.696m-18.9332 25.0092c-.3827 0-.7649-.1962-1.0004-.5587-1.3178-2.025-4.0833-6.9241-4.4921-12.8806 0 0 1.5257 8.1385 5.2496 11.7977.1998.1965.4609.2548.7487.2548.211 0 .4366-.0314.6612-.0628s.4495-.0634.6589-.0634c.2028 0 .3907.0294.5521.1161l-1.7571 1.2048c-.1888.1296-.4052.1919-.6209.1921" fill="#3c88bb"/><path d="M65.5661 104.9501s-6.8973-10.5745-7.9579-19.7625c0 0 3.0545 12.2996 8.155 16.9823.2292.2108.4571.2823.6862.2823.243 0 .4881-.0804.7391-.1602s.5088-.1609.7767-.1609a1.2 1.2 0 0 1 .5245.1181l-2.9236 2.7009" fill="#cbcbcb"/><path d="M75.0009 125.1651h0 .0049-.0049zm-.0024 0c-1.0347-.0003-2.0717-.0554-3.1117-.1664a29.378 29.378 0 0 0 3.1117.1664zm5.767-.5729h0" fill="#b8b7b9"/><path d="M75.0013 125.165h-.003c-1.0341-.0003-2.072-.0553-3.1116-.1663l-.056-.0057h0l.3479-.3014 1.3765-1.1931.5379-.4803 1.7326-1.6272c3.6139-3.4336 6.9199-7.3036 9.8238-11.4975l.1018-.1466c3.022-2.4514 5.5537-5.4826 7.4256-8.925 2.3563.7602 4.6715 1.6798 6.9298 2.7532.3146.1501.6239.3125.9364.4683l1.3135.6801c-1.3644 4.6347-3.9086 8.8652-7.4019 12.2843-3.909 3.831-8.7874 6.4483-14.0983 7.5659h0l-.0909.0184h0c-1.9081.3804-3.8294.5726-5.7597.5729h-.0044zm22.0218-21.5014c.9141.3217 1.6839.8932 1.6608 1.7857-.1407 5.2337-4.8286 9.3511-4.8286 9.3511 5.8648-4.0016 6.8808-10.0907 6.8808-10.0907s-2.5379-1.029-3.713-1.0461" fill="#c1c2c2"/><path d="M54.3366 116.3068c-1.4208-1.4894-2.6702-3.1184-3.7294-4.857 1.9517 1.2934 4.064 2.3624 6.3015 3.1715l-.3046.2115-.8676.5736-1.3999.9004" fill="#3980b2"/><path d="M101.1003 85.1773l-.414-.1439-1.5943-.5551-.6894-.2311-1.7711-.5564c-.2562-2.6066-.8488-5.1139-1.7337-7.4795l1.3862 1.4376c1.9743 2.2217 3.612 4.7878 4.8163 7.5284m-32.5487 39.2739c-4.5736-1.0609-8.807-3.2431-12.3567-6.3609.3179-.2034.6244-.4267.9395-.6364l1.1429-.7749c.5365-.3762 1.0651-.7658 1.59-1.1606 2.29.5651 4.6843.8651 7.149.8651 3.0895 0 6.0684-.4707 8.8702-1.344-.5538.5388-.8949.8415-.8949.8415.4632-.3122.9134-.643 1.3503-.988a29.469 29.469 0 0 0 3.4608-1.3887c-1.7892 2.1568-3.6933 4.1965-5.6989 6.1024-.4369.4284-.8841.8521-1.3417 1.2739l-.425.3824-.9821.8766-.5571.4736-.9205.7757-.6527.526-.6731.5363" fill="#ba9c1b"/><path d="M102.9703 102.2223l-1.0305-.5005-1.2831-.6239-1.9341-.8521-1.2341-.5181-2.1852-.806-1.0176-.363c1.6011-3.6538 2.4892-7.6894 2.4892-11.9338l-.0015-.2977.4756.1505.5827.1925 1.2461.4176.6825.2463 1.08.3963.6851.2692.7354.2948c.8289 2.6741 1.25 5.4798 1.25 8.3505 0 1.8934-.182 3.763-.5405 5.5774" fill="#3980b2"/><path d="M74.9918 126.404c-11.7431 0-21.8939-6.8034-26.7347-16.6823.7534.613 1.538 1.19 2.35 1.7279a28.586 28.586 0 0 0 3.7299 4.8571l1.3993-.9004.8682-.5731.3041-.212c.9646.3482 1.9516.6483 2.9589.8971l-1.5901 1.1606c-.3781.2648-.7595.5194-1.1429.7749l-.9395.6366h0c3.5498 3.1179 7.7832 5.2998 12.3567 6.3607l.6732-.5364.6525-.5259.9207-.7759.5571-.4734.982-.8767.4244-.3822a59.565 59.565 0 0 0 1.3424-1.2739c2.0056-1.906 3.9096-3.9457 5.6989-6.1026 2.1351-1.0174 4.1311-2.2828 5.9482-3.7571l-.1018.1466c-2.9035 4.1936-6.21 8.0634-9.8238 11.4971-.5587.5472-1.1391 1.0884-1.7322 1.6275l-.5383.4804-1.3765 1.1927-.3479.3013h0l.0564.0062a29.438 29.438 0 0 0 3.1111.1662h.003 0 .0048c1.9299-.0003 3.8512-.1925 5.7598-.5728h0l.091-.0185h0c5.3108-1.1175 10.1887-3.735 14.0983-7.5659 3.4928-3.4191 6.0369-7.6495 7.4014-12.2842h0l-1.3136-.68-.9364-.4684a56.642 56.642 0 0 0-6.9298-2.7532 29.747 29.747 0 0 0 1.1088-2.2633c.342.1131.6779.2439 1.0182.3631.7314.2572 1.4612.5185 2.1852.8059.4142.1644.8227.3444 1.2341.5181l1.9342.852c.4307.2012.8567.4126 1.2825.6238l1.0304.5007c.3592-1.8144.5405-3.6841.5405-5.5774h0c0-2.8707-.4209-5.6765-1.2494-8.3505l-.7353-.2949-.6857-.2694-1.08-.396-.6826-.2465-1.2461-.4173-.5821-.193-.4758-.1502c-.0087-.8888-.057-1.7677-.1418-2.6361l1.7711.5564.6894.2307 1.5943.555.4139.1445h0c-1.2047-2.7412-2.8419-5.3073-4.8167-7.5284-.4469-.4965-.909-.9759-1.3857-1.4381-.34-.9091-.7234-1.798-1.1472-2.663 6.7101 5.4568 10.9995 13.7746 10.9995 23.0971 0 16.4353-13.3239 29.7588-29.7585 29.7588" fill="#1a161f"/><path d="M74.9916 115.8806l.8948-.8415.4556-.1459-1.3504.9874" fill="#917b20"/><path d="M93.8552 114.8004s4.688-4.1177 4.8286-9.3514c.0237-.8924-.7467-1.4635-1.6604-1.7856 1.1748.0176 3.7125 1.046 3.7125 1.046s-1.0158 6.0892-6.8807 10.091" fill="#969799"/><path d="M146.2648 54.6895v29.6926c-46.4448-14.2256-96.0842-14.2256-142.5289 0V54.6895c46.6621-12.6784 95.8664-12.6712 142.5289 0" fill="#1c1827"/><g fill="#f4f4f4"><path d="M146.2648 81.1286v1.1115c-.0514 0-.1017-.0078-.1599-.0222-46.5176-14.2464-95.6924-14.2464-142.2095 0a.606.606 0 0 1-.1595.0222v-1.1115c46.6264-14.2469 95.9025-14.2469 142.5289 0m0-23.3312v1.1183c-.0514 0-.1017-.0068-.1599-.029-46.5176-14.2396-95.6924-14.2396-142.2095 0a.606.606 0 0 1-.1595.0222v-1.1115c46.6264-14.2469 95.9025-14.2469 142.5289 0m-.011 18.6932v1.1531c-5.0678-2.328-12.4523-3.9505-12.4523-3.9505s6.2261.8485 12.4523 2.7974"/><path d="M146.2538 71.7999v1.1532c-5.0678-2.3284-12.4523-3.9506-12.4523-3.9506s6.2261.8485 12.4523 2.7974m0-4.6911v1.1532c-5.0678-2.3281-12.4523-3.9506-12.4523-3.9506s6.2261.8485 12.4523 2.7974m0-4.6908v1.1532c-5.0678-2.3284-12.4523-3.9506-12.4523-3.9506s6.2261.8485 12.4523 2.7974M3.7372 76.4906v1.1531c5.0678-2.328 12.4523-3.9505 12.4523-3.9505s-6.2263.8485-12.4523 2.7974"/><path d="M3.7372 71.7999v1.1532c5.0678-2.3284 12.4523-3.9506 12.4523-3.9506s-6.2263.8485-12.4523 2.7974m0-4.6911v1.1532c5.0678-2.3281 12.4523-3.9506 12.4523-3.9506s-6.2263.8485-12.4523 2.7974m0-4.6908v1.1532c5.0678-2.3284 12.4523-3.9506 12.4523-3.9506s-6.2263.8485-12.4523 2.7974"/></g><path d="M50.7757 41.4618l-3.0728.1617-6.7497.5065-6.7381.7389-3.0566.4206 3.0013-.7278 6.6515-1.4208 6.7071-1.1938 3.0598-.475.1975 1.9897m71.1283 2.4707l-3.5648-.5822-7.8705-1.0116c-5.7349-.6258-11.4874-.9004-11.4874-.9004l.19-1.9884s5.7579.7764 11.4462 1.9007c2.8454.5529 5.6733 1.1796 7.7815 1.6931l3.505.8888m-20.0038-18.3306l.8577 2.639h2.7757l-2.246 1.6316.8576 2.6422-2.245-1.6314-2.2459 1.6314.8579-2.6422-2.2454-1.6316h2.7757l.8577-2.639m6.9075 5.6868l.8581 2.639h2.7753l-2.2456 1.6315.8576 2.639-2.2454-1.6315-2.2455 1.6315.8576-2.639-2.2451-1.6315h2.7754l.8576-2.639m-60.707-5.6868l-.8577 2.639h-2.7757l2.2447 1.6316-.8572 2.6422 2.2459-1.6314 2.2447 1.6314-.8573-2.6422 2.246-1.6316h-2.7757l-.8577-2.639m-6.9081 5.6868l-.8574 2.639h-2.7757l2.2454 1.6315-.8577 2.639 2.2454-1.6315 2.2457 1.6315-.8584-2.639 2.2464-1.6315h-2.776l-.8577-2.639" fill="#1c1827"/><path d="M25.6932 61.0563l-.3634.0716v-2.5501l4.648-.8736v2.5501l-1.0115.1825-2.0615 6.5837.5796-.1101v2.5501l-5.9586 1.1968v-2.5501l.4836-.1025-2.0403-5.7587-.8984.199v-2.5495l4.5104-.9663v2.55l-.3768.0774 1.2507 3.5166 1.2382-4.0169m11.6647-1.6422l-.352-.3123-1.6516.2524-.3646.4231v5.4809l.3646.2946 1.6516-.2527.352-.4043v-5.4817zm-5.4634-.2292l1.7972-2.1151 4.9661-.7605 1.8033 1.5639v7.6819l-1.8033 2.0529-4.9661.7609-1.7972-1.5021v-7.6819m14.5376-1.3176v6.1986l2.0388-.2205v-.6779l2.5435-.2519v3.2284l-8.3703.9252v-2.5499l.6787-.0857v-6.1987l-.6787.0859v-2.55l4.4677-.5286v2.5501l-.6797.075m10.3285-.9462v6.1986l2.0438-.1376v-.6783l2.55-.1487v3.2289l-8.3935.5849v-2.5502l.6811-.0579v-6.1983l-.6811.0576v-2.55l4.4812-.347v2.5504l-.6815.0476m10.3507 5.6709l1.9921-.0534v-.4476l2.5666-.0459v2.9976l-8.3654.2443v-2.5501l.6824-.03v-6.1983l-.6824.0302v-2.5501l8.3654-.2447v2.984l-2.5666.0461V56.34l-1.9921.0534v1.8176l.4638-.014v-.4343l2.5521-.0611v3.4319l-2.5521.0612v-.4479l-.4638.0135v1.8317m14.5639-2.5726v2.5392l.6825.0186v2.5503l-4.4902-.0899v-2.5501l.696.0086V59.952l-3.6996-3.6794-1.0648.0028v-2.5501l5.4196.0323v2.5501l-.464-.0073 1.365 1.3796 1.3646-1.3249-.4638-.0114v-2.55l5.2395.1771v2.55l-.9008-.0379-3.684 3.5365m12.2463 1.4844l-.3679-.3801-1.5533-.1075v2.0208l1.5533.1081.3679-.3261v-1.3152zm0-4.1671l-.3679-.3903-1.5533-.1081v1.6273l1.5533.108.3679-.3358v-.9011zm3.1183 3.5217v3.3096l-1.8101 1.6542-7.0329-.4598V62.812l.6824.0358v-6.1975l-.6824-.0366v-2.5504l7.0329.4602 1.8101 1.9633v2.8815l-.7489.6807.7489.8094m7.0315.5968l1.4399.1686-.7202-1.8759-.7197 1.7073zm3.774-5.6168v2.5502l-.5703-.0732 2.4829 6.5262.6777.0934v2.5501l-4.3412-.5684v-2.55l.3668.045-.163-.5217-3.001-.3515-.1772.4819.3671.0412v2.55l-4.3373-.4482v-2.55l.6808.0652 2.4879-5.9437-.4899-.0522v-2.5501l6.0167.7058m8.2882 3.7598v6.1986l2.0264.3377v-.6784l2.5239.4446v3.2287l-8.325-1.3677v-2.5501l.6771.1006v-6.1986l-.6771-.1006v-2.5504l4.4505.6965v2.5502l-.6758-.1111m10.2326 1.8784v6.1983l2.0146.4209v-.6779l2.5087.5472v3.2285l-8.2781-1.7076v-2.55l.6731.1281v-6.1986l-.6731-.1281v-2.5501l4.4266.8774v2.5503l-.6718-.1384" fill="#f4f4f4"/><path d="M71.5379 28.4714c0 1.032-.3162 1.7863-.9483 2.2617s-1.6788.713-3.1405.713c-1.5195 0-2.5862-.2376-3.2011-.713s-.9225-1.2525-.9225-2.3316v-6.9421c0-.9857.3046-1.6987.9137-2.14s1.6611-.6608 3.158-.6608c1.4149 0 2.4094.1796 2.9837.5392s.8608 1.0034.8608 1.9312v1.4442h-2.9054v-.5046c0-.5454-.3221-.8179-.9655-.8179-.3566 0-.6029.0754-.7424.2262s-.2055.354-.2055.6091v5.7067c0 .3245.0779.5653.2346.722s.432.2346.8263.2346h.2087c.2438 0 .4116-.0463.5046-.1387.1392-.1392.2087-.4233.2087-.8529v-1.6524h-1.3049v-2.471h4.437zm15.1364-5.8632h-2.2791v-.5051c0-.4866-.2724-.7307-.8174-.7307v9.9694h-3.0975v-3.8449-4.5063-1.3396-.2786c-.217 0-.4059.0407-.5621.122s-.25.1796-.2729.2954v.8184h-2.2791v-1.218c0-.9516.2087-1.6182.6262-2.0012s1.1603-.5737 2.2275-.5737h3.6015c1.0667 0 1.8092.1912 2.2268.5737s.6261 1.0496.6261 2.0012v1.218m-29.665 18.5324h-1.592c-.5406 0-.9312-.1232-1.1721-.3706s-.3608-.6609-.3608-1.2412v-2.6496c0-.5474.1124-.9594.3364-1.2362s.5408-.4152.9491-.4152h1.8293v1.4137h-.9759c-.3243 0-.4876.1683-.4876.5047v2.126c0 .1777.0362.2997.1092.3658s.2089.0986.4082.0986h.9562zm7.8016-1.7596c0 .7116-.1437 1.1978-.4306 1.4584s-.8387.3906-1.6559.3906c-.8109 0-1.3615-.1289-1.6513-.3859s-.435-.745-.435-1.4631v-4.1532h1.6513v4.3904c0 .1716.1397.2769.42.3162.1434 0 .2541-.0215.333-.0645s.1173-.1264.1173-.2517v-4.3904h1.6512zm8.0582.2372a.971.971 0 0 1 .0202.1926v.1831c0 .3956-.0924.6852-.2772.87s-.4744.2767-.8702.2767h-1.3742v-1.3052h.4744c.2441 0 .366-.1153.366-.3456v-.1488l-.3459-2.6201c0-.0593-.033-.1119-.0987-.1579s-.1482-.0698-.2476-.0698c-.1978.0201-.2965.1158-.2965.2868v5.7747h-1.6513v-5.5801c0-.6509.135-1.1125.4056-1.3811.303-.3032.8402-.4546 1.6118-.4546.7246 0 1.2095.0889 1.4536.267s.3986.5537.4647 1.1273zm7.7622 1.5224h-4.1527v-.969c0-.2702.0265-.501.0788-.692.0794-.2835.2245-.5441.435-.7813l1.4733-1.6315c.1386-.1578.2472-.3182.3263-.4794s.1192-.3244.1192-.4896v-.4548c0-.2504-.1157-.3757-.346-.3757-.1058 0-.1982.033-.2771.0988s-.1188.1618-.1188.2866v.8507h-1.5325v-1.1076c0-.5208.1584-.8997.4749-1.137s.8204-.356 1.5127-.356c.6786 0 1.1781.1055 1.4978.3166s.4797.565.4797 1.066v.9078a1.919 1.919 0 0 1-.1438.735c-.095.2345-.2521.4881-.4692.7648l-1.4438 1.6679-.1781.3069h2.2643zm5.2506-1.621c0 .7115-.1498 1.1795-.4498 1.4035s-.8812.3368-1.7452.3368c-.8571 0-1.4241-.1056-1.7007-.3166-.3033-.2309-.4548-.7053-.4548-1.4237V35.643c0-.7249.135-1.1961.4053-1.414s.8602-.3262 1.77-.3262c.8571 0 1.4337.1108 1.7302.3314s.445.6904.445 1.4088zm-1.6512-.218v-3.451c0-.2241-.0428-.3792-.1288-.4645s-.2241-.1284-.415-.1284c-.1711 0-.2985.0463-.3805.1381s-.1237.244-.1237.4548v3.451c0 .218.041.3675.1237.4499s.2159.1236.4003.1236.3182-.0379.4003-.114.1237-.2286.1237-.4595zm6.684 1.839h-4.1528v-.969c0-.2702.0265-.501.0794-.692.0793-.2835.2239-.5441.4349-.7813l1.4734-1.6315c.138-.1578.2468-.3182.3261-.4794s.1188-.3244.1188-.4896v-.4548c0-.2504-.1151-.3757-.3464-.3757-.1059 0-.1978.033-.2762.0988s-.1193.1618-.1193.2866v.8507h-1.532v-1.1076c0-.5208.1578-.8997.4744-1.137s.8204-.356 1.5128-.356c.679 0 1.1784.1055 1.4978.3166s.4796.565.4796 1.066v.9078c0 .2557-.0479.5015-.1432.735s-.2521.4881-.4698.7648l-1.4438 1.6679-.1781.3069h2.2644zm5.1422 0h-4.1531v-.969c0-.2702.0266-.501.079-.692.0793-.2835.2239-.5441.435-.7813l1.4735-1.6315c.1386-.1578.2469-.3182.3262-.4794s.1185-.3244.1185-.4896v-.4548c0-.2504-.1152-.3757-.346-.3757-.1055 0-.1978.033-.2766.0988s-.1184.1618-.1184.2866v.8507h-1.5329v-1.1076c0-.5208.1579-.8997.4744-1.137s.8207-.356 1.5127-.356c.6791 0 1.1786.1055 1.4979.3166s.4798.565.4798 1.066v.9078a1.924 1.924 0 0 1-.1432.735c-.0959.2345-.2521.4881-.47.7648l-1.443 1.6679-.1785.3069h2.2647v1.4728" fill="#231f20"/><g fill="#1c1827"><use xlink:href="#B"/><use xlink:href="#B" x="-36.1174"/></g></g><defs ><path id="B" d="M93.3478 19.7839l.8577 2.639h2.7757l-2.246 1.6315.8576 2.6423-2.245-1.6314-2.2459 1.6314.8579-2.6423-2.2454-1.6315h2.7757l.8577-2.639"/></defs></svg>